solid Exported from Blender-3.6.0
facet normal 0.342697 -0.758339 0.554509
outer loop
vertex 0.311021 -0.957241 0.503259
vertex 0.544616 -0.806355 0.565243
vertex 0.261996 -0.806353 0.739911
endloop
endfacet
facet normal -0.615326 -0.560263 0.554509
outer loop
vertex -0.814280 -0.591602 0.503259
vertex -0.598597 -0.767135 0.565243
vertex -0.685927 -0.498349 0.739910
endloop
endfacet
facet normal -0.722992 0.412072 0.554509
outer loop
vertex -0.814280 0.591602 0.503259
vertex -0.914569 0.332233 0.565242
vertex -0.685927 0.498349 0.739910
endloop
endfacet
facet normal 0.168486 0.814943 0.554509
outer loop
vertex 0.311021 0.957241 0.503259
vertex 0.033353 0.972472 0.565244
vertex 0.261996 0.806353 0.739911
endloop
endfacet
facet normal 0.827125 0.091586 0.554505
outer loop
vertex 1.006504 0.000000 0.503255
vertex 0.935187 0.268783 0.565240
vertex 0.847853 0.000000 0.739906
endloop
endfacet
facet normal 0.126061 0.091587 0.987786
outer loop
vertex 0.282617 0.000000 1.089239
vertex 0.087331 0.268783 1.089240
vertex 0.000000 0.000000 1.125306
endloop
endfacet
facet normal 0.391194 0.091450 0.915753
outer loop
vertex 0.591607 0.000000 0.957244
vertex 0.407136 0.295801 1.006507
vertex 0.282617 0.000000 1.089239
endloop
endfacet
facet normal 0.644124 0.091451 0.759434
outer loop
vertex 0.847853 0.000000 0.739906
vertex 0.718163 0.295803 0.814283
vertex 0.591607 0.000000 0.957244
endloop
endfacet
facet normal 0.233376 0.169558 0.957489
outer loop
vertex 0.282617 0.000000 1.089239
vertex 0.407136 0.295801 1.006507
vertex 0.087331 0.268783 1.089240
endloop
endfacet
facet normal 0.207860 0.343785 0.915754
outer loop
vertex 0.407136 0.295801 1.006507
vertex 0.182812 0.562648 0.957247
vertex 0.087331 0.268783 1.089240
endloop
endfacet
facet normal 0.516845 0.183046 0.836281
outer loop
vertex 0.591607 0.000000 0.957244
vertex 0.718163 0.295803 0.814283
vertex 0.407136 0.295801 1.006507
endloop
endfacet
facet normal 0.491120 0.356820 0.794657
outer loop
vertex 0.718163 0.295803 0.814283
vertex 0.503247 0.591605 0.814285
vertex 0.407136 0.295801 1.006507
endloop
endfacet
facet normal 0.333798 0.434985 0.836282
outer loop
vertex 0.407136 0.295801 1.006507
vertex 0.503247 0.591605 0.814285
vertex 0.182812 0.562648 0.957247
endloop
endfacet
facet normal 0.286018 0.584336 0.759438
outer loop
vertex 0.503247 0.591605 0.814285
vertex 0.261996 0.806353 0.739911
vertex 0.182812 0.562648 0.957247
endloop
endfacet
facet normal 0.752031 0.169559 0.636945
outer loop
vertex 0.847853 0.000000 0.739906
vertex 0.935187 0.268783 0.565240
vertex 0.718163 0.295803 0.814283
endloop
endfacet
facet normal 0.726114 0.343786 0.595458
outer loop
vertex 0.935187 0.268783 0.565240
vertex 0.774424 0.562650 0.591614
vertex 0.718163 0.295803 0.814283
endloop
endfacet
facet normal 0.598705 0.434986 0.672561
outer loop
vertex 0.718163 0.295803 0.814283
vertex 0.774424 0.562650 0.591614
vertex 0.503247 0.591605 0.814285
endloop
endfacet
facet normal 0.551342 0.584336 0.595460
outer loop
vertex 0.774424 0.562650 0.591614
vertex 0.544616 0.806355 0.565243
vertex 0.503247 0.591605 0.814285
endloop
endfacet
facet normal 0.393647 0.662827 0.636948
outer loop
vertex 0.503247 0.591605 0.814285
vertex 0.544616 0.806355 0.565243
vertex 0.261996 0.806353 0.739911
endloop
endfacet
facet normal 0.342697 0.758339 0.554509
outer loop
vertex 0.544616 0.806355 0.565243
vertex 0.311021 0.957241 0.503259
vertex 0.261996 0.806353 0.739911
endloop
endfacet
facet normal -0.048152 0.148190 0.987786
outer loop
vertex 0.087331 0.268783 1.089240
vertex -0.228641 0.166115 1.089240
vertex 0.000000 0.000000 1.125306
endloop
endfacet
facet normal 0.033908 0.400305 0.915754
outer loop
vertex 0.182812 0.562648 0.957247
vertex -0.155514 0.478615 1.006508
vertex 0.087331 0.268783 1.089240
endloop
endfacet
facet normal 0.112066 0.640855 0.759438
outer loop
vertex 0.261996 0.806353 0.739911
vertex -0.059404 0.774419 0.814286
vertex 0.182812 0.562648 0.957247
endloop
endfacet
facet normal -0.089144 0.274349 0.957489
outer loop
vertex 0.087331 0.268783 1.089240
vertex -0.155514 0.478615 1.006508
vertex -0.228641 0.166115 1.089240
endloop
endfacet
facet normal -0.262729 0.303920 0.915754
outer loop
vertex -0.155514 0.478615 1.006508
vertex -0.478618 0.347732 0.957247
vertex -0.228641 0.166115 1.089240
endloop
endfacet
facet normal -0.014375 0.548111 0.836282
outer loop
vertex 0.182812 0.562648 0.957247
vertex -0.059404 0.774419 0.814286
vertex -0.155514 0.478615 1.006508
endloop
endfacet
facet normal -0.187593 0.577343 0.794659
outer loop
vertex -0.059404 0.774419 0.814286
vertex -0.407140 0.661431 0.814286
vertex -0.155514 0.478615 1.006508
endloop
endfacet
facet normal -0.310546 0.451877 0.836282
outer loop
vertex -0.155514 0.478615 1.006508
vertex -0.407140 0.661431 0.814286
vertex -0.478618 0.347732 0.957247
endloop
endfacet
facet normal -0.467354 0.452587 0.759438
outer loop
vertex -0.407140 0.661431 0.814286
vertex -0.685927 0.498349 0.739910
vertex -0.478618 0.347732 0.957247
endloop
endfacet
facet normal 0.071125 0.767619 0.636947
outer loop
vertex 0.261996 0.806353 0.739911
vertex 0.033353 0.972472 0.565244
vertex -0.059404 0.774419 0.814286
endloop
endfacet
facet normal -0.102584 0.796808 0.595461
outer loop
vertex 0.033353 0.972472 0.565244
vertex -0.295808 0.910386 0.591616
vertex -0.059404 0.774419 0.814286
endloop
endfacet
facet normal -0.228689 0.703820 0.672562
outer loop
vertex -0.059404 0.774419 0.814286
vertex -0.295808 0.910386 0.591616
vertex -0.407140 0.661431 0.814286
endloop
endfacet
facet normal -0.385367 0.704925 0.595461
outer loop
vertex -0.295808 0.910386 0.591616
vertex -0.598597 0.767135 0.565243
vertex -0.407140 0.661431 0.814286
endloop
endfacet
facet normal -0.508743 0.579205 0.636948
outer loop
vertex -0.407140 0.661431 0.814286
vertex -0.598597 0.767135 0.565243
vertex -0.685927 0.498349 0.739910
endloop
endfacet
facet normal -0.615326 0.560263 0.554509
outer loop
vertex -0.598597 0.767135 0.565243
vertex -0.814280 0.591602 0.503259
vertex -0.685927 0.498349 0.739910
endloop
endfacet
facet normal -0.155816 0.000000 0.987786
outer loop
vertex -0.228641 0.166115 1.089240
vertex -0.228641 -0.166115 1.089240
vertex 0.000000 0.000000 1.125306
endloop
endfacet
facet normal -0.370234 0.155950 0.915755
outer loop
vertex -0.478618 0.347732 0.957247
vertex -0.503248 0.000000 1.006507
vertex -0.228641 0.166115 1.089240
endloop
endfacet
facet normal -0.574859 0.304617 0.759438
outer loop
vertex -0.685927 0.498349 0.739910
vertex -0.754874 0.182814 0.814284
vertex -0.478618 0.347732 0.957247
endloop
endfacet
facet normal -0.288470 0.000000 0.957489
outer loop
vertex -0.228641 0.166115 1.089240
vertex -0.503248 0.000000 1.006507
vertex -0.228641 -0.166115 1.089240
endloop
endfacet
facet normal -0.370234 -0.155950 0.915755
outer loop
vertex -0.503248 0.000000 1.006507
vertex -0.478618 -0.347732 0.957247
vertex -0.228641 -0.166115 1.089240
endloop
endfacet
facet normal -0.525729 0.155706 0.836280
outer loop
vertex -0.478618 0.347732 0.957247
vertex -0.754874 0.182814 0.814284
vertex -0.503248 0.000000 1.006507
endloop
endfacet
facet normal -0.607057 0.000000 0.794658
outer loop
vertex -0.754874 0.182814 0.814284
vertex -0.754874 -0.182814 0.814284
vertex -0.503248 0.000000 1.006507
endloop
endfacet
facet normal -0.525729 -0.155706 0.836280
outer loop
vertex -0.503248 0.000000 1.006507
vertex -0.754874 -0.182814 0.814284
vertex -0.478618 -0.347732 0.957247
endloop
endfacet
facet normal -0.574859 -0.304617 0.759438
outer loop
vertex -0.754874 -0.182814 0.814284
vertex -0.685927 -0.498349 0.739910
vertex -0.478618 -0.347732 0.957247
endloop
endfacet
facet normal -0.708071 0.304853 0.636946
outer loop
vertex -0.685927 0.498349 0.739910
vertex -0.914569 0.332233 0.565242
vertex -0.754874 0.182814 0.814284
endloop
endfacet
facet normal -0.789510 0.148666 0.595460
outer loop
vertex -0.914569 0.332233 0.565242
vertex -0.957240 0.000000 0.591614
vertex -0.754874 0.182814 0.814284
endloop
endfacet
facet normal -0.740043 0.000000 0.672560
outer loop
vertex -0.754874 0.182814 0.814284
vertex -0.957240 0.000000 0.591614
vertex -0.754874 -0.182814 0.814284
endloop
endfacet
facet normal -0.789510 -0.148666 0.595460
outer loop
vertex -0.957240 0.000000 0.591614
vertex -0.914569 -0.332233 0.565242
vertex -0.754874 -0.182814 0.814284
endloop
endfacet
facet normal -0.708071 -0.304853 0.636946
outer loop
vertex -0.754874 -0.182814 0.814284
vertex -0.914569 -0.332233 0.565242
vertex -0.685927 -0.498349 0.739910
endloop
endfacet
facet normal -0.722992 -0.412072 0.554509
outer loop
vertex -0.914569 -0.332233 0.565242
vertex -0.814280 -0.591602 0.503259
vertex -0.685927 -0.498349 0.739910
endloop
endfacet
facet normal -0.048152 -0.148190 0.987786
outer loop
vertex -0.228641 -0.166115 1.089240
vertex 0.087331 -0.268783 1.089240
vertex 0.000000 0.000000 1.125306
endloop
endfacet
facet normal -0.262729 -0.303920 0.915754
outer loop
vertex -0.478618 -0.347732 0.957247
vertex -0.155514 -0.478615 1.006508
vertex -0.228641 -0.166115 1.089240
endloop
endfacet
facet normal -0.467354 -0.452587 0.759438
outer loop
vertex -0.685927 -0.498349 0.739910
vertex -0.407140 -0.661431 0.814286
vertex -0.478618 -0.347732 0.957247
endloop
endfacet
facet normal -0.089144 -0.274349 0.957489
outer loop
vertex -0.228641 -0.166115 1.089240
vertex -0.155514 -0.478615 1.006508
vertex 0.087331 -0.268783 1.089240
endloop
endfacet
facet normal 0.033908 -0.400305 0.915754
outer loop
vertex -0.155514 -0.478615 1.006508
vertex 0.182812 -0.562648 0.957247
vertex 0.087331 -0.268783 1.089240
endloop
endfacet
facet normal -0.310547 -0.451877 0.836282
outer loop
vertex -0.478618 -0.347732 0.957247
vertex -0.407140 -0.661431 0.814286
vertex -0.155514 -0.478615 1.006508
endloop
endfacet
facet normal -0.187593 -0.577343 0.794659
outer loop
vertex -0.407140 -0.661431 0.814286
vertex -0.059404 -0.774419 0.814286
vertex -0.155514 -0.478615 1.006508
endloop
endfacet
facet normal -0.014375 -0.548111 0.836282
outer loop
vertex -0.155514 -0.478615 1.006508
vertex -0.059404 -0.774419 0.814286
vertex 0.182812 -0.562648 0.957247
endloop
endfacet
facet normal 0.112066 -0.640855 0.759438
outer loop
vertex -0.059404 -0.774419 0.814286
vertex 0.261996 -0.806353 0.739911
vertex 0.182812 -0.562648 0.957247
endloop
endfacet
facet normal -0.508743 -0.579204 0.636948
outer loop
vertex -0.685927 -0.498349 0.739910
vertex -0.598597 -0.767135 0.565243
vertex -0.407140 -0.661431 0.814286
endloop
endfacet
facet normal -0.385367 -0.704925 0.595460
outer loop
vertex -0.598597 -0.767135 0.565243
vertex -0.295808 -0.910386 0.591616
vertex -0.407140 -0.661431 0.814286
endloop
endfacet
facet normal -0.228689 -0.703820 0.672562
outer loop
vertex -0.407140 -0.661431 0.814286
vertex -0.295808 -0.910386 0.591616
vertex -0.059404 -0.774419 0.814286
endloop
endfacet
facet normal -0.102585 -0.796808 0.595461
outer loop
vertex -0.295808 -0.910386 0.591616
vertex 0.033353 -0.972472 0.565244
vertex -0.059404 -0.774419 0.814286
endloop
endfacet
facet normal 0.071125 -0.767619 0.636947
outer loop
vertex -0.059404 -0.774419 0.814286
vertex 0.033353 -0.972472 0.565244
vertex 0.261996 -0.806353 0.739911
endloop
endfacet
facet normal 0.168486 -0.814943 0.554509
outer loop
vertex 0.033353 -0.972472 0.565244
vertex 0.311021 -0.957241 0.503259
vertex 0.261996 -0.806353 0.739911
endloop
endfacet
facet normal 0.126061 -0.091587 0.987786
outer loop
vertex 0.087331 -0.268783 1.089240
vertex 0.282617 0.000000 1.089239
vertex 0.000000 0.000000 1.125306
endloop
endfacet
facet normal 0.207860 -0.343785 0.915754
outer loop
vertex 0.182812 -0.562648 0.957247
vertex 0.407136 -0.295801 1.006507
vertex 0.087331 -0.268783 1.089240
endloop
endfacet
facet normal 0.286017 -0.584336 0.759438
outer loop
vertex 0.261996 -0.806353 0.739911
vertex 0.503247 -0.591605 0.814285
vertex 0.182812 -0.562648 0.957247
endloop
endfacet
facet normal 0.233376 -0.169558 0.957489
outer loop
vertex 0.087331 -0.268783 1.089240
vertex 0.407136 -0.295801 1.006507
vertex 0.282617 0.000000 1.089239
endloop
endfacet
facet normal 0.391194 -0.091450 0.915753
outer loop
vertex 0.407136 -0.295801 1.006507
vertex 0.591607 0.000000 0.957244
vertex 0.282617 0.000000 1.089239
endloop
endfacet
facet normal 0.333798 -0.434985 0.836282
outer loop
vertex 0.182812 -0.562648 0.957247
vertex 0.503247 -0.591605 0.814285
vertex 0.407136 -0.295801 1.006507
endloop
endfacet
facet normal 0.491120 -0.356819 0.794658
outer loop
vertex 0.503247 -0.591605 0.814285
vertex 0.718163 -0.295803 0.814283
vertex 0.407136 -0.295801 1.006507
endloop
endfacet
facet normal 0.516845 -0.183046 0.836281
outer loop
vertex 0.407136 -0.295801 1.006507
vertex 0.718163 -0.295803 0.814283
vertex 0.591607 0.000000 0.957244
endloop
endfacet
facet normal 0.644124 -0.091451 0.759435
outer loop
vertex 0.718163 -0.295803 0.814283
vertex 0.847853 0.000000 0.739906
vertex 0.591607 0.000000 0.957244
endloop
endfacet
facet normal 0.393647 -0.662827 0.636948
outer loop
vertex 0.261996 -0.806353 0.739911
vertex 0.544616 -0.806355 0.565243
vertex 0.503247 -0.591605 0.814285
endloop
endfacet
facet normal 0.551343 -0.584336 0.595460
outer loop
vertex 0.544616 -0.806355 0.565243
vertex 0.774424 -0.562650 0.591614
vertex 0.503247 -0.591605 0.814285
endloop
endfacet
facet normal 0.598706 -0.434986 0.672561
outer loop
vertex 0.503247 -0.591605 0.814285
vertex 0.774424 -0.562650 0.591614
vertex 0.718163 -0.295803 0.814283
endloop
endfacet
facet normal 0.726113 -0.343786 0.595458
outer loop
vertex 0.774424 -0.562650 0.591614
vertex 0.935187 -0.268783 0.565240
vertex 0.718163 -0.295803 0.814283
endloop
endfacet
facet normal 0.752031 -0.169559 0.636945
outer loop
vertex 0.718163 -0.295803 0.814283
vertex 0.935187 -0.268783 0.565240
vertex 0.847853 0.000000 0.739906
endloop
endfacet
facet normal 0.827125 -0.091586 0.554505
outer loop
vertex 0.935187 -0.268783 0.565240
vertex 1.006504 0.000000 0.503255
vertex 0.847853 0.000000 0.739906
endloop
endfacet
facet normal 0.905035 0.148192 0.398686
outer loop
vertex 1.076497 0.166116 0.282620
vertex 0.935187 0.268783 0.565240
vertex 1.006504 0.000000 0.503255
endloop
endfacet
facet normal 0.936571 0.303923 0.174544
outer loop
vertex 1.070232 0.347734 0.000000
vertex 0.969794 0.478618 0.311030
vertex 1.076497 0.166116 0.282620
endloop
endfacet
facet normal 0.888267 0.452590 -0.078388
outer loop
vertex 0.968549 0.498350 -0.282622
vertex 0.910395 0.661435 0.000000
vertex 1.070232 0.347734 0.000000
endloop
endfacet
facet normal 0.896269 0.274350 0.348474
outer loop
vertex 1.076497 0.166116 0.282620
vertex 0.969794 0.478618 0.311030
vertex 0.935187 0.268783 0.565240
endloop
endfacet
facet normal 0.803908 0.400308 0.439871
outer loop
vertex 0.969794 0.478618 0.311030
vertex 0.774424 0.562650 0.591614
vertex 0.935187 0.268783 0.565240
endloop
endfacet
facet normal 0.886873 0.451880 0.096234
outer loop
vertex 1.070232 0.347734 0.000000
vertex 0.910395 0.661435 0.000000
vertex 0.969794 0.478618 0.311030
endloop
endfacet
facet normal 0.794655 0.577348 0.187594
outer loop
vertex 0.910395 0.661435 0.000000
vertex 0.754879 0.774424 0.311032
vertex 0.969794 0.478618 0.311030
endloop
endfacet
facet normal 0.754418 0.548114 0.361145
outer loop
vertex 0.969794 0.478618 0.311030
vertex 0.754879 0.774424 0.311032
vertex 0.774424 0.562650 0.591614
endloop
endfacet
facet normal 0.629137 0.640858 0.439872
outer loop
vertex 0.754879 0.774424 0.311032
vertex 0.544616 0.806355 0.565243
vertex 0.774424 0.562650 0.591614
endloop
endfacet
facet normal 0.797218 0.579207 -0.170187
outer loop
vertex 0.968549 0.498350 -0.282622
vertex 0.773264 0.767139 -0.282623
vertex 0.910395 0.661435 0.000000
endloop
endfacet
facet normal 0.704932 0.704930 -0.078388
outer loop
vertex 0.773264 0.767139 -0.282623
vertex 0.661439 0.910392 -0.000000
vertex 0.910395 0.661435 0.000000
endloop
endfacet
facet normal 0.703826 0.703823 0.096235
outer loop
vertex 0.910395 0.661435 0.000000
vertex 0.661439 0.910392 -0.000000
vertex 0.754879 0.774424 0.311032
endloop
endfacet
facet normal 0.578465 0.796813 0.174547
outer loop
vertex 0.661439 0.910392 -0.000000
vertex 0.490641 0.972476 0.282623
vertex 0.754879 0.774424 0.311032
endloop
endfacet
facet normal 0.537886 0.767622 0.348475
outer loop
vertex 0.754879 0.774424 0.311032
vertex 0.490641 0.972476 0.282623
vertex 0.544616 0.806355 0.565243
endloop
endfacet
facet normal 0.420608 0.814945 0.398689
outer loop
vertex 0.490641 0.972476 0.282623
vertex 0.311021 0.957241 0.503259
vertex 0.544616 0.806355 0.565243
endloop
endfacet
facet normal 0.138726 0.906533 0.398689
outer loop
vertex 0.174665 1.075143 0.282622
vertex 0.033353 0.972472 0.565244
vertex 0.311021 0.957241 0.503259
endloop
endfacet
facet normal 0.000363 0.984649 0.174545
outer loop
vertex 0.000000 1.125306 0.000000
vertex -0.155516 1.070228 0.311031
vertex 0.174665 1.075143 0.282622
endloop
endfacet
facet normal -0.155952 0.984649 -0.078388
outer loop
vertex -0.174665 1.075143 -0.282622
vertex -0.347738 1.070230 -0.000001
vertex 0.000000 1.125306 0.000000
endloop
endfacet
facet normal 0.016035 0.937181 0.348476
outer loop
vertex 0.174665 1.075143 0.282622
vertex -0.155516 1.070228 0.311031
vertex 0.033353 0.972472 0.565244
endloop
endfacet
facet normal -0.132301 0.888262 0.439872
outer loop
vertex -0.155516 1.070228 0.311031
vertex -0.295808 0.910386 0.591616
vertex 0.033353 0.972472 0.565244
endloop
endfacet
facet normal -0.155708 0.983104 0.096236
outer loop
vertex 0.000000 1.125306 0.000000
vertex -0.347738 1.070230 -0.000001
vertex -0.155516 1.070228 0.311031
endloop
endfacet
facet normal -0.303533 0.934172 0.187593
outer loop
vertex -0.347738 1.070230 -0.000001
vertex -0.503254 0.957241 0.311032
vertex -0.155516 1.070228 0.311031
endloop
endfacet
facet normal -0.288163 0.886868 0.361147
outer loop
vertex -0.155516 1.070228 0.311031
vertex -0.503254 0.957241 0.311032
vertex -0.295808 0.910386 0.591616
endloop
endfacet
facet normal -0.415083 0.796379 0.439872
outer loop
vertex -0.503254 0.957241 0.311032
vertex -0.598597 0.767135 0.565243
vertex -0.295808 0.910386 0.591616
endloop
endfacet
facet normal -0.304507 0.937183 -0.170186
outer loop
vertex -0.174665 1.075143 -0.282622
vertex -0.490641 0.972476 -0.282623
vertex -0.347738 1.070230 -0.000001
endloop
endfacet
facet normal -0.452594 0.888265 -0.078388
outer loop
vertex -0.490641 0.972476 -0.282623
vertex -0.661439 0.910392 -0.000000
vertex -0.347738 1.070230 -0.000001
endloop
endfacet
facet normal -0.451883 0.886871 0.096235
outer loop
vertex -0.347738 1.070230 -0.000001
vertex -0.661439 0.910392 -0.000000
vertex -0.503254 0.957241 0.311032
endloop
endfacet
facet normal -0.579061 0.796381 0.174545
outer loop
vertex -0.661439 0.910392 -0.000000
vertex -0.773264 0.767139 0.282623
vertex -0.503254 0.957241 0.311032
endloop
endfacet
facet normal -0.563838 0.748767 0.348476
outer loop
vertex -0.503254 0.957241 0.311032
vertex -0.773264 0.767139 0.282623
vertex -0.598597 0.767135 0.565243
endloop
endfacet
facet normal -0.645086 0.651852 0.398689
outer loop
vertex -0.773264 0.767139 0.282623
vertex -0.814280 0.591602 0.503259
vertex -0.598597 0.767135 0.565243
endloop
endfacet
facet normal -0.819296 0.412072 0.398687
outer loop
vertex -0.968549 0.498350 0.282622
vertex -0.914569 0.332233 0.565242
vertex -0.814280 0.591602 0.503259
endloop
endfacet
facet normal -0.936345 0.304618 0.174544
outer loop
vertex -1.070232 0.347734 0.000000
vertex -1.065905 0.182815 0.311030
vertex -0.968549 0.498350 0.282622
endloop
endfacet
facet normal -0.984650 0.155951 -0.078388
outer loop
vertex -1.076497 0.166116 -0.282620
vertex -1.125306 -0.000000 0.000001
vertex -1.070232 0.347734 0.000000
endloop
endfacet
facet normal -0.886357 0.304853 0.348476
outer loop
vertex -0.968549 0.498350 0.282622
vertex -1.065905 0.182815 0.311030
vertex -0.914569 0.332233 0.565242
endloop
endfacet
facet normal -0.885671 0.148666 0.439870
outer loop
vertex -1.065905 0.182815 0.311030
vertex -0.957240 0.000000 0.591614
vertex -0.914569 0.332233 0.565242
endloop
endfacet
facet normal -0.983104 0.155706 0.096236
outer loop
vertex -1.070232 0.347734 0.000000
vertex -1.125306 -0.000000 0.000001
vertex -1.065905 0.182815 0.311030
endloop
endfacet
facet normal -0.982247 -0.000001 0.187592
outer loop
vertex -1.125306 -0.000000 0.000001
vertex -1.065905 -0.182815 0.311031
vertex -1.065905 0.182815 0.311030
endloop
endfacet
facet normal -0.932509 0.000000 0.361146
outer loop
vertex -1.065905 0.182815 0.311030
vertex -1.065905 -0.182815 0.311031
vertex -0.957240 0.000000 0.591614
endloop
endfacet
facet normal -0.885671 -0.148666 0.439870
outer loop
vertex -1.065905 -0.182815 0.311031
vertex -0.914569 -0.332233 0.565242
vertex -0.957240 0.000000 0.591614
endloop
endfacet
facet normal -0.985413 0.000000 -0.170183
outer loop
vertex -1.076497 0.166116 -0.282620
vertex -1.076497 -0.166116 -0.282620
vertex -1.125306 -0.000000 0.000001
endloop
endfacet
facet normal -0.984649 -0.155951 -0.078388
outer loop
vertex -1.076497 -0.166116 -0.282620
vertex -1.070232 -0.347734 -0.000000
vertex -1.125306 -0.000000 0.000001
endloop
endfacet
facet normal -0.983104 -0.155706 0.096237
outer loop
vertex -1.125306 -0.000000 0.000001
vertex -1.070232 -0.347734 -0.000000
vertex -1.065905 -0.182815 0.311031
endloop
endfacet
facet normal -0.936345 -0.304618 0.174544
outer loop
vertex -1.070232 -0.347734 -0.000000
vertex -0.968549 -0.498350 0.282622
vertex -1.065905 -0.182815 0.311031
endloop
endfacet
facet normal -0.886357 -0.304854 0.348476
outer loop
vertex -1.065905 -0.182815 0.311031
vertex -0.968549 -0.498350 0.282622
vertex -0.914569 -0.332233 0.565242
endloop
endfacet
facet normal -0.819296 -0.412072 0.398687
outer loop
vertex -0.968549 -0.498350 0.282622
vertex -0.814280 -0.591602 0.503259
vertex -0.914569 -0.332233 0.565242
endloop
endfacet
facet normal -0.645086 -0.651853 0.398689
outer loop
vertex -0.773264 -0.767139 0.282623
vertex -0.598597 -0.767135 0.565243
vertex -0.814280 -0.591602 0.503259
endloop
endfacet
facet normal -0.579061 -0.796381 0.174546
outer loop
vertex -0.661439 -0.910392 0.000000
vertex -0.503255 -0.957240 0.311031
vertex -0.773264 -0.767139 0.282623
endloop
endfacet
facet normal -0.452594 -0.888265 -0.078389
outer loop
vertex -0.490641 -0.972476 -0.282623
vertex -0.347739 -1.070230 -0.000001
vertex -0.661439 -0.910392 0.000000
endloop
endfacet
facet normal -0.563838 -0.748767 0.348476
outer loop
vertex -0.773264 -0.767139 0.282623
vertex -0.503255 -0.957240 0.311031
vertex -0.598597 -0.767135 0.565243
endloop
endfacet
facet normal -0.415083 -0.796379 0.439871
outer loop
vertex -0.503255 -0.957240 0.311031
vertex -0.295808 -0.910386 0.591616
vertex -0.598597 -0.767135 0.565243
endloop
endfacet
facet normal -0.451883 -0.886871 0.096236
outer loop
vertex -0.661439 -0.910392 0.000000
vertex -0.347739 -1.070230 -0.000001
vertex -0.503255 -0.957240 0.311031
endloop
endfacet
facet normal -0.303534 -0.934171 0.187593
outer loop
vertex -0.347739 -1.070230 -0.000001
vertex -0.155517 -1.070228 0.311031
vertex -0.503255 -0.957240 0.311031
endloop
endfacet
facet normal -0.288164 -0.886868 0.361147
outer loop
vertex -0.503255 -0.957240 0.311031
vertex -0.155517 -1.070228 0.311031
vertex -0.295808 -0.910386 0.591616
endloop
endfacet
facet normal -0.132300 -0.888262 0.439871
outer loop
vertex -0.155517 -1.070228 0.311031
vertex 0.033353 -0.972472 0.565244
vertex -0.295808 -0.910386 0.591616
endloop
endfacet
facet normal -0.304507 -0.937183 -0.170186
outer loop
vertex -0.490641 -0.972476 -0.282623
vertex -0.174665 -1.075143 -0.282622
vertex -0.347739 -1.070230 -0.000001
endloop
endfacet
facet normal -0.155953 -0.984649 -0.078388
outer loop
vertex -0.174665 -1.075143 -0.282622
vertex 0.000000 -1.125306 -0.000000
vertex -0.347739 -1.070230 -0.000001
endloop
endfacet
facet normal -0.155708 -0.983104 0.096235
outer loop
vertex -0.347739 -1.070230 -0.000001
vertex 0.000000 -1.125306 -0.000000
vertex -0.155517 -1.070228 0.311031
endloop
endfacet
facet normal 0.000363 -0.984649 0.174546
outer loop
vertex 0.000000 -1.125306 -0.000000
vertex 0.174665 -1.075143 0.282622
vertex -0.155517 -1.070228 0.311031
endloop
endfacet
facet normal 0.016034 -0.937181 0.348475
outer loop
vertex -0.155517 -1.070228 0.311031
vertex 0.174665 -1.075143 0.282622
vertex 0.033353 -0.972472 0.565244
endloop
endfacet
facet normal 0.138726 -0.906533 0.398689
outer loop
vertex 0.174665 -1.075143 0.282622
vertex 0.311021 -0.957241 0.503259
vertex 0.033353 -0.972472 0.565244
endloop
endfacet
facet normal 0.420608 -0.814945 0.398689
outer loop
vertex 0.490641 -0.972476 0.282623
vertex 0.544616 -0.806355 0.565243
vertex 0.311021 -0.957241 0.503259
endloop
endfacet
facet normal 0.578465 -0.796813 0.174546
outer loop
vertex 0.661439 -0.910392 0.000000
vertex 0.754879 -0.774424 0.311030
vertex 0.490641 -0.972476 0.282623
endloop
endfacet
facet normal 0.704932 -0.704930 -0.078388
outer loop
vertex 0.773264 -0.767139 -0.282623
vertex 0.910394 -0.661436 -0.000002
vertex 0.661439 -0.910392 0.000000
endloop
endfacet
facet normal 0.537887 -0.767622 0.348475
outer loop
vertex 0.490641 -0.972476 0.282623
vertex 0.754879 -0.774424 0.311030
vertex 0.544616 -0.806355 0.565243
endloop
endfacet
facet normal 0.629137 -0.640859 0.439871
outer loop
vertex 0.754879 -0.774424 0.311030
vertex 0.774424 -0.562650 0.591614
vertex 0.544616 -0.806355 0.565243
endloop
endfacet
facet normal 0.703826 -0.703824 0.096234
outer loop
vertex 0.661439 -0.910392 0.000000
vertex 0.910394 -0.661436 -0.000002
vertex 0.754879 -0.774424 0.311030
endloop
endfacet
facet normal 0.794655 -0.577349 0.187593
outer loop
vertex 0.910394 -0.661436 -0.000002
vertex 0.969794 -0.478619 0.311028
vertex 0.754879 -0.774424 0.311030
endloop
endfacet
facet normal 0.754418 -0.548114 0.361144
outer loop
vertex 0.754879 -0.774424 0.311030
vertex 0.969794 -0.478619 0.311028
vertex 0.774424 -0.562650 0.591614
endloop
endfacet
facet normal 0.803908 -0.400308 0.439869
outer loop
vertex 0.969794 -0.478619 0.311028
vertex 0.935187 -0.268783 0.565240
vertex 0.774424 -0.562650 0.591614
endloop
endfacet
facet normal 0.797217 -0.579207 -0.170188
outer loop
vertex 0.773264 -0.767139 -0.282623
vertex 0.968549 -0.498350 -0.282622
vertex 0.910394 -0.661436 -0.000002
endloop
endfacet
facet normal 0.888267 -0.452590 -0.078388
outer loop
vertex 0.968549 -0.498350 -0.282622
vertex 1.070232 -0.347734 -0.000000
vertex 0.910394 -0.661436 -0.000002
endloop
endfacet
facet normal 0.886873 -0.451880 0.096233
outer loop
vertex 0.910394 -0.661436 -0.000002
vertex 1.070232 -0.347734 -0.000000
vertex 0.969794 -0.478619 0.311028
endloop
endfacet
facet normal 0.936571 -0.303923 0.174544
outer loop
vertex 1.070232 -0.347734 -0.000000
vertex 1.076497 -0.166116 0.282620
vertex 0.969794 -0.478619 0.311028
endloop
endfacet
facet normal 0.896269 -0.274351 0.348473
outer loop
vertex 0.969794 -0.478619 0.311028
vertex 1.076497 -0.166116 0.282620
vertex 0.935187 -0.268783 0.565240
endloop
endfacet
facet normal 0.905035 -0.148192 0.398686
outer loop
vertex 1.076497 -0.166116 0.282620
vertex 1.006504 0.000000 0.503255
vertex 0.935187 -0.268783 0.565240
endloop
endfacet
facet normal 0.294548 0.906533 0.302389
outer loop
vertex 0.490641 0.972476 0.282623
vertex 0.174665 1.075143 0.282622
vertex 0.311021 0.957241 0.503259
endloop
endfacet
facet normal 0.452594 0.888265 0.078389
outer loop
vertex 0.661439 0.910392 -0.000000
vertex 0.347739 1.070230 -0.000000
vertex 0.490641 0.972476 0.282623
endloop
endfacet
facet normal 0.579061 0.796381 -0.174546
outer loop
vertex 0.773264 0.767139 -0.282623
vertex 0.503255 0.957240 -0.311032
vertex 0.661439 0.910392 -0.000000
endloop
endfacet
facet normal 0.304507 0.937183 0.170186
outer loop
vertex 0.490641 0.972476 0.282623
vertex 0.347739 1.070230 -0.000000
vertex 0.174665 1.075143 0.282622
endloop
endfacet
facet normal 0.155953 0.984649 0.078388
outer loop
vertex 0.347739 1.070230 -0.000000
vertex 0.000000 1.125306 0.000000
vertex 0.174665 1.075143 0.282622
endloop
endfacet
facet normal 0.451883 0.886871 -0.096236
outer loop
vertex 0.661439 0.910392 -0.000000
vertex 0.503255 0.957240 -0.311032
vertex 0.347739 1.070230 -0.000000
endloop
endfacet
facet normal 0.303534 0.934171 -0.187594
outer loop
vertex 0.503255 0.957240 -0.311032
vertex 0.155516 1.070228 -0.311032
vertex 0.347739 1.070230 -0.000000
endloop
endfacet
facet normal 0.155708 0.983104 -0.096235
outer loop
vertex 0.347739 1.070230 -0.000000
vertex 0.155516 1.070228 -0.311032
vertex 0.000000 1.125306 0.000000
endloop
endfacet
facet normal -0.000363 0.984649 -0.174544
outer loop
vertex 0.155516 1.070228 -0.311032
vertex -0.174665 1.075143 -0.282622
vertex 0.000000 1.125306 0.000000
endloop
endfacet
facet normal -0.771146 0.560264 0.302388
outer loop
vertex -0.773264 0.767139 0.282623
vertex -0.968549 0.498350 0.282622
vertex -0.814280 0.591602 0.503259
endloop
endfacet
facet normal -0.704932 0.704930 0.078389
outer loop
vertex -0.661439 0.910392 -0.000000
vertex -0.910394 0.661436 -0.000000
vertex -0.773264 0.767139 0.282623
endloop
endfacet
facet normal -0.578465 0.796814 -0.174546
outer loop
vertex -0.490641 0.972476 -0.282623
vertex -0.754877 0.774425 -0.311032
vertex -0.661439 0.910392 -0.000000
endloop
endfacet
facet normal -0.797217 0.579207 0.170187
outer loop
vertex -0.773264 0.767139 0.282623
vertex -0.910394 0.661436 -0.000000
vertex -0.968549 0.498350 0.282622
endloop
endfacet
facet normal -0.888267 0.452590 0.078388
outer loop
vertex -0.910394 0.661436 -0.000000
vertex -1.070232 0.347734 0.000000
vertex -0.968549 0.498350 0.282622
endloop
endfacet
facet normal -0.703826 0.703824 -0.096235
outer loop
vertex -0.661439 0.910392 -0.000000
vertex -0.754877 0.774425 -0.311032
vertex -0.910394 0.661436 -0.000000
endloop
endfacet
facet normal -0.794654 0.577350 -0.187594
outer loop
vertex -0.754877 0.774425 -0.311032
vertex -0.969793 0.478620 -0.311031
vertex -0.910394 0.661436 -0.000000
endloop
endfacet
facet normal -0.886873 0.451880 -0.096234
outer loop
vertex -0.910394 0.661436 -0.000000
vertex -0.969793 0.478620 -0.311031
vertex -1.070232 0.347734 0.000000
endloop
endfacet
facet normal -0.936571 0.303924 -0.174545
outer loop
vertex -0.969793 0.478620 -0.311031
vertex -1.076497 0.166116 -0.282620
vertex -1.070232 0.347734 0.000000
endloop
endfacet
facet normal -0.771146 -0.560264 0.302388
outer loop
vertex -0.968549 -0.498350 0.282622
vertex -0.773264 -0.767139 0.282623
vertex -0.814280 -0.591602 0.503259
endloop
endfacet
facet normal -0.888267 -0.452590 0.078388
outer loop
vertex -1.070232 -0.347734 -0.000000
vertex -0.910394 -0.661436 0.000000
vertex -0.968549 -0.498350 0.282622
endloop
endfacet
facet normal -0.936571 -0.303924 -0.174545
outer loop
vertex -1.076497 -0.166116 -0.282620
vertex -0.969793 -0.478620 -0.311031
vertex -1.070232 -0.347734 -0.000000
endloop
endfacet
facet normal -0.797217 -0.579207 0.170187
outer loop
vertex -0.968549 -0.498350 0.282622
vertex -0.910394 -0.661436 0.000000
vertex -0.773264 -0.767139 0.282623
endloop
endfacet
facet normal -0.704932 -0.704930 0.078388
outer loop
vertex -0.910394 -0.661436 0.000000
vertex -0.661439 -0.910392 0.000000
vertex -0.773264 -0.767139 0.282623
endloop
endfacet
facet normal -0.886873 -0.451880 -0.096234
outer loop
vertex -1.070232 -0.347734 -0.000000
vertex -0.969793 -0.478620 -0.311031
vertex -0.910394 -0.661436 0.000000
endloop
endfacet
facet normal -0.794654 -0.577350 -0.187594
outer loop
vertex -0.969793 -0.478620 -0.311031
vertex -0.754877 -0.774425 -0.311032
vertex -0.910394 -0.661436 0.000000
endloop
endfacet
facet normal -0.703826 -0.703824 -0.096235
outer loop
vertex -0.910394 -0.661436 0.000000
vertex -0.754877 -0.774425 -0.311032
vertex -0.661439 -0.910392 0.000000
endloop
endfacet
facet normal -0.578465 -0.796814 -0.174546
outer loop
vertex -0.754877 -0.774425 -0.311032
vertex -0.490641 -0.972476 -0.282623
vertex -0.661439 -0.910392 0.000000
endloop
endfacet
facet normal 0.294548 -0.906533 0.302389
outer loop
vertex 0.174665 -1.075143 0.282622
vertex 0.490641 -0.972476 0.282623
vertex 0.311021 -0.957241 0.503259
endloop
endfacet
facet normal 0.155953 -0.984649 0.078388
outer loop
vertex 0.000000 -1.125306 -0.000000
vertex 0.347739 -1.070230 0.000000
vertex 0.174665 -1.075143 0.282622
endloop
endfacet
facet normal -0.000363 -0.984649 -0.174544
outer loop
vertex -0.174665 -1.075143 -0.282622
vertex 0.155516 -1.070228 -0.311032
vertex 0.000000 -1.125306 -0.000000
endloop
endfacet
facet normal 0.304507 -0.937183 0.170186
outer loop
vertex 0.174665 -1.075143 0.282622
vertex 0.347739 -1.070230 0.000000
vertex 0.490641 -0.972476 0.282623
endloop
endfacet
facet normal 0.452594 -0.888265 0.078389
outer loop
vertex 0.347739 -1.070230 0.000000
vertex 0.661439 -0.910392 0.000000
vertex 0.490641 -0.972476 0.282623
endloop
endfacet
facet normal 0.155708 -0.983104 -0.096235
outer loop
vertex 0.000000 -1.125306 -0.000000
vertex 0.155516 -1.070228 -0.311032
vertex 0.347739 -1.070230 0.000000
endloop
endfacet
facet normal 0.303534 -0.934171 -0.187594
outer loop
vertex 0.155516 -1.070228 -0.311032
vertex 0.503255 -0.957240 -0.311032
vertex 0.347739 -1.070230 0.000000
endloop
endfacet
facet normal 0.451884 -0.886871 -0.096236
outer loop
vertex 0.347739 -1.070230 0.000000
vertex 0.503255 -0.957240 -0.311032
vertex 0.661439 -0.910392 0.000000
endloop
endfacet
facet normal 0.579061 -0.796381 -0.174545
outer loop
vertex 0.503255 -0.957240 -0.311032
vertex 0.773264 -0.767139 -0.282623
vertex 0.661439 -0.910392 0.000000
endloop
endfacet
facet normal 0.953185 0.000000 0.302386
outer loop
vertex 1.076497 -0.166116 0.282620
vertex 1.076497 0.166116 0.282620
vertex 1.006504 0.000000 0.503255
endloop
endfacet
facet normal 0.984649 -0.155951 0.078388
outer loop
vertex 1.070232 -0.347734 -0.000000
vertex 1.125306 0.000000 0.000000
vertex 1.076497 -0.166116 0.282620
endloop
endfacet
facet normal 0.936345 -0.304618 -0.174544
outer loop
vertex 0.968549 -0.498350 -0.282622
vertex 1.065905 -0.182815 -0.311030
vertex 1.070232 -0.347734 -0.000000
endloop
endfacet
facet normal 0.985412 0.000000 0.170183
outer loop
vertex 1.076497 -0.166116 0.282620
vertex 1.125306 0.000000 0.000000
vertex 1.076497 0.166116 0.282620
endloop
endfacet
facet normal 0.984649 0.155951 0.078388
outer loop
vertex 1.125306 0.000000 0.000000
vertex 1.070232 0.347734 0.000000
vertex 1.076497 0.166116 0.282620
endloop
endfacet
facet normal 0.983104 -0.155706 -0.096236
outer loop
vertex 1.070232 -0.347734 -0.000000
vertex 1.065905 -0.182815 -0.311030
vertex 1.125306 0.000000 0.000000
endloop
endfacet
facet normal 0.982247 0.000000 -0.187592
outer loop
vertex 1.065905 -0.182815 -0.311030
vertex 1.065905 0.182815 -0.311030
vertex 1.125306 0.000000 0.000000
endloop
endfacet
facet normal 0.983104 0.155706 -0.096236
outer loop
vertex 1.125306 0.000000 0.000000
vertex 1.065905 0.182815 -0.311030
vertex 1.070232 0.347734 0.000000
endloop
endfacet
facet normal 0.936345 0.304618 -0.174544
outer loop
vertex 1.065905 0.182815 -0.311030
vertex 0.968549 0.498350 -0.282622
vertex 1.070232 0.347734 0.000000
endloop
endfacet
endsolid Exported from Blender-3.6.0
