solid Exported from Blender-3.6.0
facet normal 0.276390 -0.850648 0.447220
outer loop
vertex 0.467207 -0.949514 0.468889
vertex 0.387858 -0.891864 0.627584
vertex 0.210432 -0.949512 0.627584
endloop
endfacet
facet normal 0.276390 -0.850649 0.447219
outer loop
vertex 0.210432 -0.949512 0.627584
vertex 0.180125 -1.042792 0.468889
vertex 0.338820 -1.042793 0.370809
endloop
endfacet
facet normal 0.276389 -0.850650 0.447218
outer loop
vertex 0.210432 -0.949512 0.627584
vertex 0.338820 -1.042793 0.370809
vertex 0.467207 -0.949514 0.468889
endloop
endfacet
facet normal -0.723607 -0.525726 0.447219
outer loop
vertex -0.758669 -0.737755 0.468889
vertex -0.728360 -0.644475 0.627584
vertex -0.838013 -0.493549 0.627583
endloop
endfacet
facet normal -0.723606 -0.525728 0.447218
outer loop
vertex -0.838013 -0.493549 0.627583
vertex -0.936093 -0.493549 0.468888
vertex -0.887055 -0.644477 0.370809
endloop
endfacet
facet normal -0.723608 -0.525726 0.447217
outer loop
vertex -0.838013 -0.493549 0.627583
vertex -0.887055 -0.644477 0.370809
vertex -0.758669 -0.737755 0.468889
endloop
endfacet
facet normal -0.723607 0.525726 0.447219
outer loop
vertex -0.936093 0.493549 0.468888
vertex -0.838013 0.493549 0.627583
vertex -0.728360 0.644475 0.627584
endloop
endfacet
facet normal -0.723609 0.525725 0.447218
outer loop
vertex -0.728360 0.644475 0.627584
vertex -0.758669 0.737755 0.468889
vertex -0.887055 0.644477 0.370809
endloop
endfacet
facet normal -0.723607 0.525728 0.447217
outer loop
vertex -0.728360 0.644475 0.627584
vertex -0.887055 0.644477 0.370809
vertex -0.936093 0.493549 0.468888
endloop
endfacet
facet normal 0.276389 0.850649 0.447220
outer loop
vertex 0.180125 1.042792 0.468889
vertex 0.210432 0.949512 0.627584
vertex 0.387858 0.891864 0.627584
endloop
endfacet
facet normal 0.276389 0.850649 0.447219
outer loop
vertex 0.387858 0.891864 0.627584
vertex 0.467207 0.949514 0.468889
vertex 0.338820 1.042793 0.370809
endloop
endfacet
facet normal 0.276390 0.850649 0.447219
outer loop
vertex 0.387858 0.891864 0.627584
vertex 0.338820 1.042793 0.370809
vertex 0.180125 1.042792 0.468889
endloop
endfacet
facet normal 0.894426 0.000000 0.447216
outer loop
vertex 1.047418 0.150926 0.468885
vertex 0.968071 0.093277 0.627579
vertex 0.968071 -0.093277 0.627579
endloop
endfacet
facet normal 0.894426 0.000001 0.447216
outer loop
vertex 0.968071 -0.093277 0.627579
vertex 1.047418 -0.150926 0.468885
vertex 1.096458 0.000000 0.370806
endloop
endfacet
facet normal 0.894426 -0.000001 0.447216
outer loop
vertex 0.968071 -0.093277 0.627579
vertex 1.096458 0.000000 0.370806
vertex 1.047418 0.150926 0.468885
endloop
endfacet
facet normal 0.000001 0.000000 1.000000
outer loop
vertex 0.128385 -0.093277 1.146531
vertex 0.128385 0.093277 1.146531
vertex -0.049039 0.150925 1.146532
endloop
endfacet
facet normal 0.000000 0.000000 1.000000
outer loop
vertex -0.049039 0.150925 1.146532
vertex -0.158693 0.000000 1.146532
vertex -0.049039 -0.150925 1.146532
endloop
endfacet
facet normal 0.000002 0.000000 1.000000
outer loop
vertex -0.049039 0.150925 1.146532
vertex -0.049039 -0.150925 1.146532
vertex 0.128385 -0.093277 1.146531
endloop
endfacet
facet normal 0.956893 -0.148838 0.249406
outer loop
vertex 1.034679 -0.317023 0.402176
vertex 1.081544 -0.344422 0.206017
vertex 1.135513 -0.178324 0.098079
endloop
endfacet
facet normal 0.964081 -0.136931 0.227590
outer loop
vertex 1.135513 -0.178324 0.098079
vertex 1.137687 0.000000 0.196158
vertex 1.096458 0.000000 0.370806
endloop
endfacet
facet normal 0.959965 -0.164647 0.226624
outer loop
vertex 1.096458 0.000000 0.370806
vertex 1.047418 -0.150926 0.468885
vertex 1.034679 -0.317023 0.402176
endloop
endfacet
facet normal 0.956331 -0.162311 0.243075
outer loop
vertex 1.135513 -0.178324 0.098079
vertex 1.096458 0.000000 0.370806
vertex 1.034679 -0.317023 0.402176
endloop
endfacet
facet normal 0.952564 -0.304230 0.008114
outer loop
vertex 1.023901 -0.516316 0.107937
vertex 1.023468 -0.523163 -0.098081
vertex 1.077436 -0.357065 -0.206018
endloop
endfacet
facet normal 0.955291 -0.295538 -0.008731
outer loop
vertex 1.077436 -0.357065 -0.206018
vertex 1.131837 -0.184119 -0.107939
vertex 1.135513 -0.178324 0.098079
endloop
endfacet
facet normal 0.949464 -0.313770 -0.008111
outer loop
vertex 1.135513 -0.178324 0.098079
vertex 1.081544 -0.344422 0.206017
vertex 1.023901 -0.516316 0.107937
endloop
endfacet
facet normal 0.949587 -0.313490 0.002910
outer loop
vertex 1.077436 -0.357065 -0.206018
vertex 1.135513 -0.178324 0.098079
vertex 1.023901 -0.516316 0.107937
endloop
endfacet
facet normal 0.949464 0.313771 -0.008110
outer loop
vertex 1.023901 0.516315 0.107939
vertex 1.081544 0.344422 0.206018
vertex 1.135513 0.178324 0.098079
endloop
endfacet
facet normal 0.955291 0.295537 -0.008731
outer loop
vertex 1.135513 0.178324 0.098079
vertex 1.131837 0.184119 -0.107939
vertex 1.077436 0.357065 -0.206018
endloop
endfacet
facet normal 0.952564 0.304230 0.008114
outer loop
vertex 1.077436 0.357065 -0.206018
vertex 1.023469 0.523163 -0.098080
vertex 1.023901 0.516315 0.107939
endloop
endfacet
facet normal 0.949587 0.313490 0.002910
outer loop
vertex 1.135513 0.178324 0.098079
vertex 1.077436 0.357065 -0.206018
vertex 1.023901 0.516315 0.107939
endloop
endfacet
facet normal 0.959965 0.164646 0.226624
outer loop
vertex 1.034679 0.317023 0.402176
vertex 1.047418 0.150926 0.468885
vertex 1.096458 0.000000 0.370806
endloop
endfacet
facet normal 0.964082 0.136930 0.227590
outer loop
vertex 1.096458 0.000000 0.370806
vertex 1.137687 0.000000 0.196158
vertex 1.135513 0.178324 0.098079
endloop
endfacet
facet normal 0.956893 0.148837 0.249406
outer loop
vertex 1.135513 0.178324 0.098079
vertex 1.081544 0.344422 0.206018
vertex 1.034679 0.317023 0.402176
endloop
endfacet
facet normal 0.956331 0.162312 0.243075
outer loop
vertex 1.096458 0.000000 0.370806
vertex 1.135513 0.178324 0.098079
vertex 1.034679 0.317023 0.402176
endloop
endfacet
facet normal 0.154141 -0.956052 0.249408
outer loop
vertex 0.018220 -1.082003 0.402179
vertex 0.006645 -1.135041 0.206019
vertex 0.181293 -1.135042 0.098080
endloop
endfacet
facet normal 0.167686 -0.959210 0.227591
outer loop
vertex 0.181293 -1.135042 0.098080
vertex 0.351563 -1.082005 0.196160
vertex 0.338820 -1.042793 0.370809
endloop
endfacet
facet normal 0.140054 -0.963860 0.226625
outer loop
vertex 0.338820 -1.042793 0.370809
vertex 0.180125 -1.042792 0.468889
vertex 0.018220 -1.082003 0.402179
endloop
endfacet
facet normal 0.141153 -0.959682 0.243077
outer loop
vertex 0.181293 -1.135042 0.098080
vertex 0.338820 -1.042793 0.370809
vertex 0.018220 -1.082003 0.402179
endloop
endfacet
facet normal 0.005019 -0.999955 0.008114
outer loop
vertex -0.174648 -1.133337 0.107939
vertex -0.181293 -1.135042 -0.098080
vertex -0.006645 -1.135041 -0.206019
endloop
endfacet
facet normal 0.014127 -0.999862 -0.008731
outer loop
vertex -0.006645 -1.135041 -0.206019
vertex 0.174648 -1.133337 -0.107939
vertex 0.181293 -1.135042 0.098080
endloop
endfacet
facet normal -0.005016 -0.999955 -0.008109
outer loop
vertex 0.181293 -1.135042 0.098080
vertex 0.006645 -1.135041 0.206019
vertex -0.174648 -1.133337 0.107939
endloop
endfacet
facet normal -0.004711 -0.999985 0.002909
outer loop
vertex -0.006645 -1.135041 -0.206019
vertex 0.181293 -1.135042 0.098080
vertex -0.174648 -1.133337 0.107939
endloop
endfacet
facet normal 0.591815 -0.806033 -0.008111
outer loop
vertex 0.807452 -0.814233 0.107938
vertex 0.661783 -0.922175 0.206019
vertex 0.520491 -1.024830 0.098080
endloop
endfacet
facet normal 0.576279 -0.817207 -0.008730
outer loop
vertex 0.520491 -1.024830 0.098080
vertex 0.524868 -1.019543 -0.107939
vertex 0.672540 -0.914359 -0.206019
endloop
endfacet
facet normal 0.583702 -0.811927 0.008113
outer loop
vertex 0.672540 -0.914359 -0.206019
vertex 0.813832 -0.811705 -0.098081
vertex 0.807452 -0.814233 0.107938
endloop
endfacet
facet normal 0.591587 -0.806236 0.002909
outer loop
vertex 0.520491 -1.024830 0.098080
vertex 0.672540 -0.914359 -0.206019
vertex 0.807452 -0.814233 0.107938
endloop
endfacet
facet normal 0.453232 -0.862104 0.226623
outer loop
vertex 0.621241 -0.886071 0.402178
vertex 0.467207 -0.949514 0.468889
vertex 0.338820 -1.042793 0.370809
endloop
endfacet
facet normal 0.428147 -0.874581 0.227593
outer loop
vertex 0.338820 -1.042793 0.370809
vertex 0.351563 -1.082005 0.196160
vertex 0.520491 -1.024830 0.098080
endloop
endfacet
facet normal 0.437251 -0.864065 0.249407
outer loop
vertex 0.520491 -1.024830 0.098080
vertex 0.661783 -0.922175 0.206019
vertex 0.621241 -0.886071 0.402178
endloop
endfacet
facet normal 0.449887 -0.859369 0.243078
outer loop
vertex 0.338820 -1.042793 0.370809
vertex 0.520491 -1.024830 0.098080
vertex 0.621241 -0.886071 0.402178
endloop
endfacet
facet normal -0.861629 -0.442032 0.249406
outer loop
vertex -1.023416 -0.351685 0.402178
vertex -1.077436 -0.357065 0.206019
vertex -1.023468 -0.523163 0.098080
endloop
endfacet
facet normal -0.860446 -0.455889 0.227591
outer loop
vertex -1.023468 -0.523163 0.098080
vertex -0.920410 -0.668712 0.196160
vertex -0.887055 -0.644477 0.370809
endloop
endfacet
facet normal -0.873406 -0.431049 0.226624
outer loop
vertex -0.887055 -0.644477 0.370809
vertex -0.936093 -0.493549 0.468888
vertex -1.023416 -0.351685 0.402178
endloop
endfacet
facet normal -0.869094 -0.430802 0.243075
outer loop
vertex -1.023468 -0.523163 0.098080
vertex -0.887055 -0.644477 0.370809
vertex -1.023416 -0.351685 0.402178
endloop
endfacet
facet normal -0.949463 -0.313772 0.008115
outer loop
vertex -1.131837 -0.184119 0.107939
vertex -1.135513 -0.178324 -0.098079
vertex -1.081544 -0.344422 -0.206018
endloop
endfacet
facet normal -0.946561 -0.322408 -0.008732
outer loop
vertex -1.081544 -0.344422 -0.206018
vertex -1.023900 -0.516316 -0.107939
vertex -1.023468 -0.523163 0.098080
endloop
endfacet
facet normal -0.952564 -0.304232 -0.008110
outer loop
vertex -1.023468 -0.523163 0.098080
vertex -1.077436 -0.357065 0.206019
vertex -1.131837 -0.184119 0.107939
endloop
endfacet
facet normal -0.952498 -0.304532 0.002909
outer loop
vertex -1.081544 -0.344422 -0.206018
vertex -1.023468 -0.523163 0.098080
vertex -1.131837 -0.184119 0.107939
endloop
endfacet
facet normal -0.583703 -0.811926 -0.008110
outer loop
vertex -0.524868 -1.019543 0.107939
vertex -0.672540 -0.914359 0.206019
vertex -0.813832 -0.811705 0.098080
endloop
endfacet
facet normal -0.599131 -0.800603 -0.008730
outer loop
vertex -0.813832 -0.811705 0.098080
vertex -0.807451 -0.814233 -0.107939
vertex -0.661782 -0.922175 -0.206019
endloop
endfacet
facet normal -0.591816 -0.806032 0.008112
outer loop
vertex -0.661782 -0.922175 -0.206019
vertex -0.520491 -1.024830 -0.098081
vertex -0.524868 -1.019543 0.107939
endloop
endfacet
facet normal -0.583968 -0.811772 0.002909
outer loop
vertex -0.813832 -0.811705 0.098080
vertex -0.661782 -0.922175 -0.206019
vertex -0.524868 -1.019543 0.107939
endloop
endfacet
facet normal -0.679854 -0.697453 0.226624
outer loop
vertex -0.650732 -0.864644 0.402179
vertex -0.758669 -0.737755 0.468889
vertex -0.887055 -0.644477 0.370809
endloop
endfacet
facet normal -0.699473 -0.677451 0.227593
outer loop
vertex -0.887055 -0.644477 0.370809
vertex -0.920410 -0.668712 0.196160
vertex -0.813832 -0.811705 0.098080
endloop
endfacet
facet normal -0.686658 -0.682859 0.249406
outer loop
vertex -0.813832 -0.811705 0.098080
vertex -0.672540 -0.914359 0.206019
vertex -0.650732 -0.864644 0.402179
endloop
endfacet
facet normal -0.678287 -0.693426 0.243077
outer loop
vertex -0.887055 -0.644477 0.370809
vertex -0.813832 -0.811705 0.098080
vertex -0.650732 -0.864644 0.402179
endloop
endfacet
facet normal -0.686658 0.682860 0.249406
outer loop
vertex -0.650732 0.864644 0.402179
vertex -0.672540 0.914359 0.206019
vertex -0.813832 0.811705 0.098080
endloop
endfacet
facet normal -0.699474 0.677450 0.227592
outer loop
vertex -0.813832 0.811705 0.098080
vertex -0.920410 0.668712 0.196160
vertex -0.887055 0.644477 0.370809
endloop
endfacet
facet normal -0.679855 0.697452 0.226623
outer loop
vertex -0.887055 0.644477 0.370809
vertex -0.758669 0.737755 0.468889
vertex -0.650732 0.864644 0.402179
endloop
endfacet
facet normal -0.678287 0.693426 0.243077
outer loop
vertex -0.813832 0.811705 0.098080
vertex -0.887055 0.644477 0.370809
vertex -0.650732 0.864644 0.402179
endloop
endfacet
facet normal -0.591816 0.806032 0.008112
outer loop
vertex -0.524867 1.019543 0.107939
vertex -0.520490 1.024830 -0.098080
vertex -0.661782 0.922175 -0.206019
endloop
endfacet
facet normal -0.599132 0.800603 -0.008730
outer loop
vertex -0.661782 0.922175 -0.206019
vertex -0.807451 0.814233 -0.107939
vertex -0.813832 0.811705 0.098080
endloop
endfacet
facet normal -0.583703 0.811927 -0.008110
outer loop
vertex -0.813832 0.811705 0.098080
vertex -0.672540 0.914359 0.206019
vertex -0.524867 1.019543 0.107939
endloop
endfacet
facet normal -0.583967 0.811772 0.002909
outer loop
vertex -0.661782 0.922175 -0.206019
vertex -0.813832 0.811705 0.098080
vertex -0.524867 1.019543 0.107939
endloop
endfacet
facet normal -0.952564 0.304232 -0.008112
outer loop
vertex -1.131837 0.184119 0.107939
vertex -1.077436 0.357065 0.206018
vertex -1.023468 0.523163 0.098080
endloop
endfacet
facet normal -0.946561 0.322406 -0.008732
outer loop
vertex -1.023468 0.523163 0.098080
vertex -1.023900 0.516316 -0.107939
vertex -1.081544 0.344422 -0.206018
endloop
endfacet
facet normal -0.949463 0.313774 0.008114
outer loop
vertex -1.081544 0.344422 -0.206018
vertex -1.135513 0.178324 -0.098079
vertex -1.131837 0.184119 0.107939
endloop
endfacet
facet normal -0.952498 0.304532 0.002909
outer loop
vertex -1.023468 0.523163 0.098080
vertex -1.081544 0.344422 -0.206018
vertex -1.131837 0.184119 0.107939
endloop
endfacet
facet normal -0.873406 0.431049 0.226625
outer loop
vertex -1.023416 0.351685 0.402177
vertex -0.936093 0.493549 0.468888
vertex -0.887055 0.644477 0.370809
endloop
endfacet
facet normal -0.860446 0.455889 0.227590
outer loop
vertex -0.887055 0.644477 0.370809
vertex -0.920410 0.668712 0.196160
vertex -1.023468 0.523163 0.098080
endloop
endfacet
facet normal -0.861629 0.442031 0.249406
outer loop
vertex -1.023468 0.523163 0.098080
vertex -1.077436 0.357065 0.206018
vertex -1.023416 0.351685 0.402177
endloop
endfacet
facet normal -0.869093 0.430803 0.243075
outer loop
vertex -0.887055 0.644477 0.370809
vertex -1.023468 0.523163 0.098080
vertex -1.023416 0.351685 0.402177
endloop
endfacet
facet normal 0.437250 0.864065 0.249407
outer loop
vertex 0.621241 0.886070 0.402179
vertex 0.661783 0.922175 0.206019
vertex 0.520491 1.024830 0.098080
endloop
endfacet
facet normal 0.428147 0.874581 0.227594
outer loop
vertex 0.520491 1.024830 0.098080
vertex 0.351563 1.082005 0.196160
vertex 0.338820 1.042793 0.370809
endloop
endfacet
facet normal 0.453233 0.862103 0.226624
outer loop
vertex 0.338820 1.042793 0.370809
vertex 0.467207 0.949514 0.468889
vertex 0.621241 0.886070 0.402179
endloop
endfacet
facet normal 0.449888 0.859369 0.243077
outer loop
vertex 0.520491 1.024830 0.098080
vertex 0.338820 1.042793 0.370809
vertex 0.621241 0.886070 0.402179
endloop
endfacet
facet normal 0.583703 0.811927 0.008113
outer loop
vertex 0.807452 0.814233 0.107939
vertex 0.813832 0.811704 -0.098080
vertex 0.672540 0.914359 -0.206019
endloop
endfacet
facet normal 0.576279 0.817206 -0.008729
outer loop
vertex 0.672540 0.914359 -0.206019
vertex 0.524868 1.019543 -0.107939
vertex 0.520491 1.024830 0.098080
endloop
endfacet
facet normal 0.591816 0.806032 -0.008110
outer loop
vertex 0.520491 1.024830 0.098080
vertex 0.661783 0.922175 0.206019
vertex 0.807452 0.814233 0.107939
endloop
endfacet
facet normal 0.591587 0.806236 0.002909
outer loop
vertex 0.672540 0.914359 -0.206019
vertex 0.520491 1.024830 0.098080
vertex 0.807452 0.814233 0.107939
endloop
endfacet
facet normal -0.005015 0.999955 -0.008111
outer loop
vertex -0.174647 1.133337 0.107939
vertex 0.006645 1.135041 0.206019
vertex 0.181293 1.135042 0.098080
endloop
endfacet
facet normal 0.014127 0.999862 -0.008731
outer loop
vertex 0.181293 1.135042 0.098080
vertex 0.174648 1.133337 -0.107939
vertex -0.006645 1.135041 -0.206019
endloop
endfacet
facet normal 0.005020 0.999954 0.008116
outer loop
vertex -0.006645 1.135041 -0.206019
vertex -0.181292 1.135042 -0.098080
vertex -0.174647 1.133337 0.107939
endloop
endfacet
facet normal -0.004710 0.999985 0.002909
outer loop
vertex 0.181293 1.135042 0.098080
vertex -0.006645 1.135041 -0.206019
vertex -0.174647 1.133337 0.107939
endloop
endfacet
facet normal 0.140054 0.963859 0.226628
outer loop
vertex 0.018220 1.082003 0.402179
vertex 0.180125 1.042792 0.468889
vertex 0.338820 1.042793 0.370809
endloop
endfacet
facet normal 0.167686 0.959210 0.227591
outer loop
vertex 0.338820 1.042793 0.370809
vertex 0.351563 1.082005 0.196160
vertex 0.181293 1.135042 0.098080
endloop
endfacet
facet normal 0.154141 0.956052 0.249408
outer loop
vertex 0.181293 1.135042 0.098080
vertex 0.006645 1.135041 0.206019
vertex 0.018220 1.082003 0.402179
endloop
endfacet
facet normal 0.141153 0.959682 0.243076
outer loop
vertex 0.338820 1.042793 0.370809
vertex 0.181293 1.135042 0.098080
vertex 0.018220 1.082003 0.402179
endloop
endfacet
facet normal 0.830280 -0.240829 0.502630
outer loop
vertex 0.868006 -0.195931 0.735517
vertex 0.842524 -0.391191 0.684055
vertex 0.929849 -0.454635 0.509408
endloop
endfacet
facet normal 0.835513 -0.258763 0.484727
outer loop
vertex 0.929849 -0.454635 0.509408
vertex 1.034679 -0.317023 0.402176
vertex 1.047418 -0.150926 0.468885
endloop
endfacet
facet normal 0.819908 -0.266407 0.506733
outer loop
vertex 1.047418 -0.150926 0.468885
vertex 0.968071 -0.093277 0.627579
vertex 0.868006 -0.195931 0.735517
endloop
endfacet
facet normal 0.822318 -0.250136 0.511102
outer loop
vertex 0.929849 -0.454635 0.509408
vertex 1.047418 -0.150926 0.468885
vertex 0.868006 -0.195931 0.735517
endloop
endfacet
facet normal 0.693764 -0.492259 0.525712
outer loop
vertex 0.692626 -0.503222 0.770482
vertex 0.632399 -0.680401 0.684057
vertex 0.719724 -0.743846 0.509409
endloop
endfacet
facet normal 0.695159 -0.505062 0.511534
outer loop
vertex 0.719724 -0.743846 0.509409
vertex 0.867275 -0.630110 0.421188
vertex 0.929849 -0.454635 0.509408
endloop
endfacet
facet normal 0.682551 -0.507696 0.525709
outer loop
vertex 0.929849 -0.454635 0.509408
vertex 0.842524 -0.391191 0.684055
vertex 0.692626 -0.503222 0.770482
endloop
endfacet
facet normal 0.685825 -0.498279 0.530436
outer loop
vertex 0.719724 -0.743846 0.509409
vertex 0.929849 -0.454635 0.509408
vertex 0.692626 -0.503222 0.770482
endloop
endfacet
facet normal 0.506727 -0.697456 0.506738
outer loop
vertex 0.454568 -0.764975 0.735521
vertex 0.387858 -0.891864 0.627584
vertex 0.467207 -0.949514 0.468889
endloop
endfacet
facet normal 0.504285 -0.714655 0.484731
outer loop
vertex 0.467207 -0.949514 0.468889
vertex 0.621241 -0.886071 0.402178
vertex 0.719724 -0.743846 0.509409
endloop
endfacet
facet normal 0.485611 -0.715224 0.502630
outer loop
vertex 0.719724 -0.743846 0.509409
vertex 0.632399 -0.680401 0.684057
vertex 0.454568 -0.764975 0.735521
endloop
endfacet
facet normal 0.492004 -0.704773 0.511104
outer loop
vertex 0.467207 -0.949514 0.468889
vertex 0.719724 -0.743846 0.509409
vertex 0.454568 -0.764975 0.735521
endloop
endfacet
facet normal 0.027524 -0.864062 0.502632
outer loop
vertex 0.081881 -0.886067 0.735521
vertex -0.111697 -0.922170 0.684058
vertex -0.145051 -1.024826 0.509410
endloop
endfacet
facet normal 0.012084 -0.874582 0.484728
outer loop
vertex -0.145051 -1.024826 0.509410
vertex 0.018220 -1.082003 0.402179
vertex 0.180125 -1.042792 0.468889
endloop
endfacet
facet normal -0.000008 -0.862101 0.506736
outer loop
vertex 0.180125 -1.042792 0.468889
vertex 0.210432 -0.949512 0.627584
vertex 0.081881 -0.886067 0.735521
endloop
endfacet
facet normal 0.016212 -0.859365 0.511105
outer loop
vertex -0.145051 -1.024826 0.509410
vertex 0.180125 -1.042792 0.468889
vertex 0.081881 -0.886067 0.735521
endloop
endfacet
facet normal -0.253784 -0.811924 0.525712
outer loop
vertex -0.264563 -0.814227 0.770484
vertex -0.451682 -0.811700 0.684057
vertex -0.485038 -0.914356 0.509410
endloop
endfacet
facet normal -0.265531 -0.817207 0.511533
outer loop
vertex -0.485038 -0.914356 0.509410
vertex -0.331273 -1.019540 0.421190
vertex -0.145051 -1.024826 0.509410
endloop
endfacet
facet normal -0.271932 -0.806028 0.525711
outer loop
vertex -0.145051 -1.024826 0.509410
vertex -0.111697 -0.922170 0.684058
vertex -0.264563 -0.814227 0.770484
endloop
endfacet
facet normal -0.261965 -0.806232 0.530438
outer loop
vertex -0.485038 -0.914356 0.509410
vertex -0.145051 -1.024826 0.509410
vertex -0.264563 -0.814227 0.770484
endloop
endfacet
facet normal -0.506732 -0.697453 0.506737
outer loop
vertex -0.587067 -0.668708 0.735521
vertex -0.728360 -0.644475 0.627584
vertex -0.758669 -0.737755 0.468889
endloop
endfacet
facet normal -0.523849 -0.700443 0.484729
outer loop
vertex -0.758669 -0.737755 0.468889
vertex -0.650732 -0.864644 0.402179
vertex -0.485038 -0.914356 0.509410
endloop
endfacet
facet normal -0.530159 -0.682857 0.502632
outer loop
vertex -0.485038 -0.914356 0.509410
vertex -0.451682 -0.811700 0.684057
vertex -0.587067 -0.668708 0.735521
endloop
endfacet
facet normal -0.518244 -0.685708 0.511104
outer loop
vertex -0.758669 -0.737755 0.468889
vertex -0.485038 -0.914356 0.509410
vertex -0.587067 -0.668708 0.735521
endloop
endfacet
facet normal -0.813266 -0.293191 0.502631
outer loop
vertex -0.817397 -0.351685 0.735520
vertex -0.911553 -0.178740 0.684056
vertex -1.019491 -0.178740 0.509409
endloop
endfacet
facet normal -0.828042 -0.281755 0.484728
outer loop
vertex -1.019491 -0.178740 0.509409
vertex -1.023416 -0.351685 0.402178
vertex -0.936093 -0.493549 0.468888
endloop
endfacet
facet normal -0.819909 -0.266397 0.506737
outer loop
vertex -0.936093 -0.493549 0.468888
vertex -0.838013 -0.493549 0.627583
vertex -0.817397 -0.351685 0.735520
endloop
endfacet
facet normal -0.812295 -0.280978 0.511104
outer loop
vertex -1.019491 -0.178740 0.509409
vertex -0.936093 -0.493549 0.468888
vertex -0.817397 -0.351685 0.735520
endloop
endfacet
facet normal -0.850610 -0.009542 0.525711
outer loop
vertex -0.856133 0.000000 0.770482
vertex -0.911553 0.178740 0.684056
vertex -1.019491 0.178740 0.509409
endloop
endfacet
facet normal -0.859264 -0.000001 0.511532
outer loop
vertex -1.019491 0.178740 0.509409
vertex -1.072010 -0.000000 0.421188
vertex -1.019491 -0.178740 0.509409
endloop
endfacet
facet normal -0.850610 0.009542 0.525710
outer loop
vertex -1.019491 -0.178740 0.509409
vertex -0.911553 -0.178740 0.684056
vertex -0.856133 0.000000 0.770482
endloop
endfacet
facet normal -0.847724 -0.000000 0.530438
outer loop
vertex -1.019491 0.178740 0.509409
vertex -1.019491 -0.178740 0.509409
vertex -0.856133 0.000000 0.770482
endloop
endfacet
facet normal -0.819909 0.266397 0.506736
outer loop
vertex -0.817397 0.351685 0.735520
vertex -0.838013 0.493549 0.627583
vertex -0.936093 0.493549 0.468888
endloop
endfacet
facet normal -0.828042 0.281755 0.484727
outer loop
vertex -0.936093 0.493549 0.468888
vertex -1.023416 0.351685 0.402177
vertex -1.019491 0.178740 0.509409
endloop
endfacet
facet normal -0.813266 0.293192 0.502631
outer loop
vertex -1.019491 0.178740 0.509409
vertex -0.911553 0.178740 0.684056
vertex -0.817397 0.351685 0.735520
endloop
endfacet
facet normal -0.812295 0.280978 0.511104
outer loop
vertex -0.936093 0.493549 0.468888
vertex -1.019491 0.178740 0.509409
vertex -0.817397 0.351685 0.735520
endloop
endfacet
facet normal -0.530159 0.682857 0.502631
outer loop
vertex -0.587067 0.668708 0.735521
vertex -0.451682 0.811700 0.684057
vertex -0.485037 0.914356 0.509410
endloop
endfacet
facet normal -0.523848 0.700443 0.484730
outer loop
vertex -0.485037 0.914356 0.509410
vertex -0.650732 0.864644 0.402179
vertex -0.758669 0.737755 0.468889
endloop
endfacet
facet normal -0.506732 0.697453 0.506737
outer loop
vertex -0.758669 0.737755 0.468889
vertex -0.728360 0.644475 0.627584
vertex -0.587067 0.668708 0.735521
endloop
endfacet
facet normal -0.518244 0.685708 0.511105
outer loop
vertex -0.485037 0.914356 0.509410
vertex -0.758669 0.737755 0.468889
vertex -0.587067 0.668708 0.735521
endloop
endfacet
facet normal -0.271932 0.806028 0.525711
outer loop
vertex -0.264563 0.814227 0.770484
vertex -0.111697 0.922170 0.684058
vertex -0.145051 1.024826 0.509410
endloop
endfacet
facet normal -0.265530 0.817206 0.511535
outer loop
vertex -0.145051 1.024826 0.509410
vertex -0.331272 1.019540 0.421190
vertex -0.485037 0.914356 0.509410
endloop
endfacet
facet normal -0.253784 0.811924 0.525712
outer loop
vertex -0.485037 0.914356 0.509410
vertex -0.451682 0.811700 0.684057
vertex -0.264563 0.814227 0.770484
endloop
endfacet
facet normal -0.261965 0.806232 0.530438
outer loop
vertex -0.145051 1.024826 0.509410
vertex -0.485037 0.914356 0.509410
vertex -0.264563 0.814227 0.770484
endloop
endfacet
facet normal -0.000007 0.862101 0.506736
outer loop
vertex 0.081881 0.886067 0.735521
vertex 0.210432 0.949512 0.627584
vertex 0.180125 1.042792 0.468889
endloop
endfacet
facet normal 0.012085 0.874582 0.484728
outer loop
vertex 0.180125 1.042792 0.468889
vertex 0.018220 1.082003 0.402179
vertex -0.145051 1.024826 0.509410
endloop
endfacet
facet normal 0.027525 0.864062 0.502632
outer loop
vertex -0.145051 1.024826 0.509410
vertex -0.111697 0.922170 0.684058
vertex 0.081881 0.886067 0.735521
endloop
endfacet
facet normal 0.016212 0.859365 0.511105
outer loop
vertex 0.180125 1.042792 0.468889
vertex -0.145051 1.024826 0.509410
vertex 0.081881 0.886067 0.735521
endloop
endfacet
facet normal 0.485611 0.715223 0.502632
outer loop
vertex 0.454568 0.764975 0.735521
vertex 0.632399 0.680401 0.684057
vertex 0.719724 0.743846 0.509410
endloop
endfacet
facet normal 0.504284 0.714656 0.484730
outer loop
vertex 0.719724 0.743846 0.509410
vertex 0.621241 0.886070 0.402179
vertex 0.467207 0.949514 0.468889
endloop
endfacet
facet normal 0.506728 0.697455 0.506738
outer loop
vertex 0.467207 0.949514 0.468889
vertex 0.387858 0.891864 0.627584
vertex 0.454568 0.764975 0.735521
endloop
endfacet
facet normal 0.492003 0.704773 0.511104
outer loop
vertex 0.719724 0.743846 0.509410
vertex 0.467207 0.949514 0.468889
vertex 0.454568 0.764975 0.735521
endloop
endfacet
facet normal 0.682550 0.507696 0.525709
outer loop
vertex 0.692626 0.503222 0.770482
vertex 0.842524 0.391191 0.684055
vertex 0.929849 0.454634 0.509408
endloop
endfacet
facet normal 0.695159 0.505060 0.511535
outer loop
vertex 0.929849 0.454634 0.509408
vertex 0.867275 0.630109 0.421189
vertex 0.719724 0.743846 0.509410
endloop
endfacet
facet normal 0.693763 0.492259 0.525713
outer loop
vertex 0.719724 0.743846 0.509410
vertex 0.632399 0.680401 0.684057
vertex 0.692626 0.503222 0.770482
endloop
endfacet
facet normal 0.685824 0.498279 0.530437
outer loop
vertex 0.929849 0.454634 0.509408
vertex 0.719724 0.743846 0.509410
vertex 0.692626 0.503222 0.770482
endloop
endfacet
facet normal 0.819908 0.266407 0.506733
outer loop
vertex 0.868006 0.195931 0.735517
vertex 0.968071 0.093277 0.627579
vertex 1.047418 0.150926 0.468885
endloop
endfacet
facet normal 0.835513 0.258762 0.484728
outer loop
vertex 1.047418 0.150926 0.468885
vertex 1.034679 0.317023 0.402176
vertex 0.929849 0.454634 0.509408
endloop
endfacet
facet normal 0.830279 0.240828 0.502631
outer loop
vertex 0.929849 0.454634 0.509408
vertex 0.842524 0.391191 0.684055
vertex 0.868006 0.195931 0.735517
endloop
endfacet
facet normal 0.822318 0.250135 0.511102
outer loop
vertex 1.047418 0.150926 0.468885
vertex 0.929849 0.454634 0.509408
vertex 0.868006 0.195931 0.735517
endloop
endfacet
facet normal 0.086560 -0.266403 0.959967
outer loop
vertex 0.128385 -0.093277 1.146531
vertex -0.049039 -0.150925 1.146532
vertex -0.103008 -0.317021 1.105304
endloop
endfacet
facet normal 0.078250 -0.240826 0.967409
outer loop
vertex -0.103008 -0.317021 1.105304
vertex 0.039780 -0.454632 1.059498
vertex 0.235040 -0.391190 1.059497
endloop
endfacet
facet normal 0.103638 -0.244549 0.964082
outer loop
vertex 0.235040 -0.391190 1.059497
vertex 0.269676 -0.195931 1.105304
vertex 0.128385 -0.093277 1.146531
endloop
endfacet
facet normal 0.074709 -0.254904 0.964076
outer loop
vertex -0.103008 -0.317021 1.105304
vertex 0.235040 -0.391190 1.059497
vertex 0.128385 -0.093277 1.146531
endloop
endfacet
facet normal 0.164959 -0.507690 0.845600
outer loop
vertex 0.235040 -0.391190 1.059497
vertex 0.039780 -0.454632 1.059498
vertex -0.011142 -0.630106 0.964079
endloop
endfacet
facet normal 0.159942 -0.492256 0.855630
outer loop
vertex -0.011142 -0.630106 0.964079
vertex 0.133749 -0.743843 0.871560
vertex 0.329009 -0.680400 0.871560
endloop
endfacet
facet normal 0.178230 -0.494794 0.850537
outer loop
vertex 0.329009 -0.680400 0.871560
vertex 0.379378 -0.503221 0.964078
vertex 0.235040 -0.391190 1.059497
endloop
endfacet
facet normal 0.157188 -0.501699 0.850641
outer loop
vertex -0.011142 -0.630106 0.964079
vertex 0.329009 -0.680400 0.871560
vertex 0.235040 -0.391190 1.059497
endloop
endfacet
facet normal 0.226614 -0.697454 0.679856
outer loop
vertex 0.210432 -0.949512 0.627584
vertex 0.387858 -0.891864 0.627584
vertex 0.454568 -0.764975 0.735521
endloop
endfacet
facet normal 0.232387 -0.715220 0.659133
outer loop
vertex 0.454568 -0.764975 0.735521
vertex 0.329009 -0.680400 0.871560
vertex 0.133749 -0.743843 0.871560
endloop
endfacet
facet normal 0.208026 -0.714654 0.667829
outer loop
vertex 0.133749 -0.743843 0.871560
vertex 0.081881 -0.886067 0.735521
vertex 0.210432 -0.949512 0.627584
endloop
endfacet
facet normal 0.237105 -0.704772 0.668639
outer loop
vertex 0.454568 -0.764975 0.735521
vertex 0.133749 -0.743843 0.871560
vertex 0.210432 -0.949512 0.627584
endloop
endfacet
facet normal 0.733348 0.000000 0.679854
outer loop
vertex 0.968071 -0.093277 0.627579
vertex 0.968071 0.093277 0.627579
vertex 0.868006 0.195931 0.735517
endloop
endfacet
facet normal 0.752029 0.000000 0.659130
outer loop
vertex 0.868006 0.195931 0.735517
vertex 0.748772 0.102654 0.871557
vertex 0.748772 -0.102654 0.871557
endloop
endfacet
facet normal 0.743962 -0.022993 0.667826
outer loop
vertex 0.748772 -0.102654 0.871557
vertex 0.868006 -0.195931 0.735517
vertex 0.968071 -0.093277 0.627579
endloop
endfacet
facet normal 0.743550 0.007717 0.668636
outer loop
vertex 0.868006 0.195931 0.735517
vertex 0.748772 -0.102654 0.871557
vertex 0.968071 -0.093277 0.627579
endloop
endfacet
facet normal 0.533819 0.000000 0.845599
outer loop
vertex 0.595828 0.205308 0.964077
vertex 0.444678 0.102654 1.059496
vertex 0.444678 -0.102654 1.059496
endloop
endfacet
facet normal 0.525657 -0.016606 0.850534
outer loop
vertex 0.444678 -0.102654 1.059496
vertex 0.595828 -0.205308 0.964077
vertex 0.748772 -0.102654 0.871557
endloop
endfacet
facet normal 0.517591 0.000000 0.855628
outer loop
vertex 0.748772 -0.102654 0.871557
vertex 0.748772 0.102654 0.871557
vertex 0.595828 0.205308 0.964077
endloop
endfacet
facet normal 0.525722 0.005536 0.850639
outer loop
vertex 0.444678 -0.102654 1.059496
vertex 0.748772 -0.102654 0.871557
vertex 0.595828 0.205308 0.964077
endloop
endfacet
facet normal 0.280112 0.000000 0.959967
outer loop
vertex 0.269676 0.195931 1.105304
vertex 0.128385 0.093277 1.146531
vertex 0.128385 -0.093277 1.146531
endloop
endfacet
facet normal 0.264608 -0.022993 0.964082
outer loop
vertex 0.128385 -0.093277 1.146531
vertex 0.269676 -0.195931 1.105304
vertex 0.444678 -0.102654 1.059496
endloop
endfacet
facet normal 0.253222 0.000000 0.967408
outer loop
vertex 0.444678 -0.102654 1.059496
vertex 0.444678 0.102654 1.059496
vertex 0.269676 0.195931 1.105304
endloop
endfacet
facet normal 0.265516 0.007717 0.964076
outer loop
vertex 0.128385 -0.093277 1.146531
vertex 0.444678 -0.102654 1.059496
vertex 0.269676 0.195931 1.105304
endloop
endfacet
facet normal -0.226616 -0.164646 0.959967
outer loop
vertex -0.049039 -0.150925 1.146532
vertex -0.158693 0.000000 1.146532
vertex -0.333338 0.000000 1.105304
endloop
endfacet
facet normal -0.204863 -0.148839 0.967408
outer loop
vertex -0.333338 0.000000 1.105304
vertex -0.420089 -0.178323 1.059497
vertex -0.299413 -0.344420 1.059498
endloop
endfacet
facet normal -0.200557 -0.174133 0.964082
outer loop
vertex -0.299413 -0.344420 1.059498
vertex -0.103008 -0.317021 1.105304
vertex -0.049039 -0.150925 1.146532
endloop
endfacet
facet normal -0.219341 -0.149822 0.964076
outer loop
vertex -0.333338 0.000000 1.105304
vertex -0.299413 -0.344420 1.059498
vertex -0.049039 -0.150925 1.146532
endloop
endfacet
facet normal -0.431867 -0.313769 0.845600
outer loop
vertex -0.299413 -0.344420 1.059498
vertex -0.420089 -0.178323 1.059497
vertex -0.602711 -0.184118 0.964078
endloop
endfacet
facet normal -0.418741 -0.304230 0.855629
outer loop
vertex -0.602711 -0.184118 0.964078
vertex -0.666107 -0.357063 0.871559
vertex -0.545431 -0.523161 0.871560
endloop
endfacet
facet normal -0.415504 -0.322404 0.850537
outer loop
vertex -0.545431 -0.523161 0.871560
vertex -0.361359 -0.516312 0.964079
vertex -0.299413 -0.344420 1.059498
endloop
endfacet
facet normal -0.428571 -0.304529 0.850640
outer loop
vertex -0.602711 -0.184118 0.964078
vertex -0.545431 -0.523161 0.871560
vertex -0.299413 -0.344420 1.059498
endloop
endfacet
facet normal -0.593291 -0.431047 0.679856
outer loop
vertex -0.838013 -0.493549 0.627583
vertex -0.728360 -0.644475 0.627584
vertex -0.587067 -0.668708 0.735521
endloop
endfacet
facet normal -0.608403 -0.442027 0.659134
outer loop
vertex -0.587067 -0.668708 0.735521
vertex -0.545431 -0.523161 0.871560
vertex -0.666107 -0.357063 0.871559
endloop
endfacet
facet normal -0.615392 -0.418686 0.667828
outer loop
vertex -0.666107 -0.357063 0.871559
vertex -0.817397 -0.351685 0.735520
vertex -0.838013 -0.493549 0.627583
endloop
endfacet
facet normal -0.597010 -0.443286 0.668638
outer loop
vertex -0.587067 -0.668708 0.735521
vertex -0.666107 -0.357063 0.871559
vertex -0.838013 -0.493549 0.627583
endloop
endfacet
facet normal -0.226612 0.164645 0.959968
outer loop
vertex -0.158693 0.000000 1.146532
vertex -0.049039 0.150925 1.146532
vertex -0.103008 0.317021 1.105304
endloop
endfacet
facet normal -0.204861 0.148838 0.967408
outer loop
vertex -0.103008 0.317021 1.105304
vertex -0.299413 0.344420 1.059498
vertex -0.420089 0.178323 1.059497
endloop
endfacet
facet normal -0.227587 0.136928 0.964082
outer loop
vertex -0.420089 0.178323 1.059497
vertex -0.333338 0.000000 1.105304
vertex -0.158693 0.000000 1.146532
endloop
endfacet
facet normal -0.210272 0.162308 0.964076
outer loop
vertex -0.103008 0.317021 1.105304
vertex -0.420089 0.178323 1.059497
vertex -0.158693 0.000000 1.146532
endloop
endfacet
facet normal -0.431867 0.313768 0.845601
outer loop
vertex -0.420089 0.178323 1.059497
vertex -0.299413 0.344420 1.059498
vertex -0.361359 0.516312 0.964079
endloop
endfacet
facet normal -0.418740 0.304229 0.855629
outer loop
vertex -0.361359 0.516312 0.964079
vertex -0.545431 0.523161 0.871560
vertex -0.666107 0.357063 0.871559
endloop
endfacet
facet normal -0.435025 0.295536 0.850536
outer loop
vertex -0.666107 0.357063 0.871559
vertex -0.602711 0.184118 0.964078
vertex -0.420089 0.178323 1.059497
endloop
endfacet
facet normal -0.422063 0.313487 0.850640
outer loop
vertex -0.361359 0.516312 0.964079
vertex -0.666107 0.357063 0.871559
vertex -0.420089 0.178323 1.059497
endloop
endfacet
facet normal -0.593293 0.431047 0.679855
outer loop
vertex -0.728360 0.644475 0.627584
vertex -0.838013 0.493549 0.627583
vertex -0.817397 0.351685 0.735520
endloop
endfacet
facet normal -0.608404 0.442028 0.659133
outer loop
vertex -0.817397 0.351685 0.735520
vertex -0.666107 0.357063 0.871559
vertex -0.545431 0.523161 0.871560
endloop
endfacet
facet normal -0.588364 0.455887 0.667829
outer loop
vertex -0.545431 0.523161 0.871560
vertex -0.587067 0.668708 0.735521
vertex -0.728360 0.644475 0.627584
endloop
endfacet
facet normal -0.606080 0.430801 0.668639
outer loop
vertex -0.817397 0.351685 0.735520
vertex -0.545431 0.523161 0.871560
vertex -0.728360 0.644475 0.627584
endloop
endfacet
facet normal 0.086560 0.266402 0.959967
outer loop
vertex -0.049039 0.150925 1.146532
vertex 0.128385 0.093277 1.146531
vertex 0.269676 0.195931 1.105304
endloop
endfacet
facet normal 0.078248 0.240826 0.967409
outer loop
vertex 0.269676 0.195931 1.105304
vertex 0.235040 0.391190 1.059497
vertex 0.039780 0.454632 1.059498
endloop
endfacet
facet normal 0.059899 0.258761 0.964082
outer loop
vertex 0.039780 0.454632 1.059498
vertex -0.103008 0.317021 1.105304
vertex -0.049039 0.150925 1.146532
endloop
endfacet
facet normal 0.089389 0.250134 0.964076
outer loop
vertex 0.269676 0.195931 1.105304
vertex 0.039780 0.454632 1.059498
vertex -0.049039 0.150925 1.146532
endloop
endfacet
facet normal 0.164957 0.507689 0.845601
outer loop
vertex 0.039780 0.454632 1.059498
vertex 0.235040 0.391190 1.059497
vertex 0.379378 0.503221 0.964078
endloop
endfacet
facet normal 0.159942 0.492255 0.855630
outer loop
vertex 0.379378 0.503221 0.964078
vertex 0.329009 0.680400 0.871560
vertex 0.133749 0.743843 0.871560
endloop
endfacet
facet normal 0.146639 0.505059 0.850537
outer loop
vertex 0.133749 0.743843 0.871560
vertex -0.011142 0.630106 0.964079
vertex 0.039780 0.454632 1.059498
endloop
endfacet
facet normal 0.167720 0.498277 0.850641
outer loop
vertex 0.379378 0.503221 0.964078
vertex 0.133749 0.743843 0.871560
vertex 0.039780 0.454632 1.059498
endloop
endfacet
facet normal 0.226614 0.697453 0.679857
outer loop
vertex 0.387858 0.891864 0.627584
vertex 0.210432 0.949512 0.627584
vertex 0.081881 0.886067 0.735521
endloop
endfacet
facet normal 0.232387 0.715220 0.659133
outer loop
vertex 0.081881 0.886067 0.735521
vertex 0.133749 0.743843 0.871560
vertex 0.329009 0.680400 0.871560
endloop
endfacet
facet normal 0.251762 0.700443 0.667829
outer loop
vertex 0.329009 0.680400 0.871560
vertex 0.454568 0.764975 0.735521
vertex 0.387858 0.891864 0.627584
endloop
endfacet
facet normal 0.222428 0.709541 0.668638
outer loop
vertex 0.081881 0.886067 0.735521
vertex 0.329009 0.680400 0.871560
vertex 0.387858 0.891864 0.627584
endloop
endfacet
facet normal 0.376024 0.270208 0.886337
outer loop
vertex 0.269676 0.195931 1.105304
vertex 0.444678 0.102654 1.059496
vertex 0.595828 0.205308 0.964077
endloop
endfacet
facet normal 0.371826 0.270146 0.888126
outer loop
vertex 0.595828 0.205308 0.964077
vertex 0.565164 0.410616 0.914465
vertex 0.379378 0.503221 0.964078
endloop
endfacet
facet normal 0.373178 0.274123 0.886338
outer loop
vertex 0.379378 0.503221 0.964078
vertex 0.235040 0.391190 1.059497
vertex 0.269676 0.195931 1.105304
endloop
endfacet
facet normal 0.375653 0.272928 0.885661
outer loop
vertex 0.595828 0.205308 0.964077
vertex 0.379378 0.503221 0.964078
vertex 0.269676 0.195931 1.105304
endloop
endfacet
facet normal 0.624596 0.270208 0.732712
outer loop
vertex 0.595828 0.205308 0.964077
vertex 0.748772 0.102654 0.871557
vertex 0.868006 0.195931 0.735517
endloop
endfacet
facet normal 0.625868 0.274121 0.730169
outer loop
vertex 0.868006 0.195931 0.735517
vertex 0.842524 0.391191 0.684055
vertex 0.692626 0.503222 0.770482
endloop
endfacet
facet normal 0.628070 0.270149 0.729758
outer loop
vertex 0.692626 0.503222 0.770482
vertex 0.565164 0.410616 0.914465
vertex 0.595828 0.205308 0.964077
endloop
endfacet
facet normal 0.624158 0.272928 0.732078
outer loop
vertex 0.868006 0.195931 0.735517
vertex 0.692626 0.503222 0.770482
vertex 0.595828 0.205308 0.964077
endloop
endfacet
facet normal 0.451009 0.513853 0.729757
outer loop
vertex 0.379378 0.503221 0.964078
vertex 0.565164 0.410616 0.914465
vertex 0.692626 0.503222 0.770482
endloop
endfacet
facet normal 0.454109 0.510527 0.730169
outer loop
vertex 0.692626 0.503222 0.770482
vertex 0.632399 0.680401 0.684057
vertex 0.454568 0.764975 0.735521
endloop
endfacet
facet normal 0.449990 0.510528 0.732715
outer loop
vertex 0.454568 0.764975 0.735521
vertex 0.329009 0.680400 0.871560
vertex 0.379378 0.503221 0.964078
endloop
endfacet
facet normal 0.452444 0.509268 0.732080
outer loop
vertex 0.692626 0.503222 0.770482
vertex 0.454568 0.764975 0.735521
vertex 0.379378 0.503221 0.964078
endloop
endfacet
facet normal -0.140786 0.441116 0.886338
outer loop
vertex -0.103008 0.317021 1.105304
vertex 0.039780 0.454632 1.059498
vertex -0.011142 0.630106 0.964079
endloop
endfacet
facet normal -0.142026 0.437106 0.888126
outer loop
vertex -0.011142 0.630106 0.964079
vertex -0.215877 0.664387 0.914466
vertex -0.361359 0.516312 0.964079
endloop
endfacet
facet normal -0.145389 0.439620 0.886339
outer loop
vertex -0.361359 0.516312 0.964079
vertex -0.299413 0.344420 1.059498
vertex -0.103008 0.317021 1.105304
endloop
endfacet
facet normal -0.143489 0.441604 0.885662
outer loop
vertex -0.011142 0.630106 0.964079
vertex -0.361359 0.516312 0.964079
vertex -0.103008 0.317021 1.105304
endloop
endfacet
facet normal -0.063975 0.677522 0.732715
outer loop
vertex -0.011142 0.630106 0.964079
vertex 0.133749 0.743843 0.871560
vertex 0.081881 0.886067 0.735521
endloop
endfacet
facet normal -0.067306 0.679944 0.730169
outer loop
vertex 0.081881 0.886067 0.735521
vertex -0.111697 0.922170 0.684058
vertex -0.264563 0.814227 0.770484
endloop
endfacet
facet normal -0.062844 0.680810 0.729760
outer loop
vertex -0.264563 0.814227 0.770484
vertex -0.215877 0.664387 0.914466
vertex -0.011142 0.630106 0.964079
endloop
endfacet
facet normal -0.066699 0.677945 0.732080
outer loop
vertex 0.081881 0.886067 0.735521
vertex -0.264563 0.814227 0.770484
vertex -0.011142 0.630106 0.964079
endloop
endfacet
facet normal -0.349334 0.587722 0.729759
outer loop
vertex -0.361359 0.516312 0.964079
vertex -0.215877 0.664387 0.914466
vertex -0.264563 0.814227 0.770484
endloop
endfacet
facet normal -0.345216 0.589644 0.730168
outer loop
vertex -0.264563 0.814227 0.770484
vertex -0.451682 0.811700 0.684057
vertex -0.587067 0.668708 0.735521
endloop
endfacet
facet normal -0.346488 0.585727 0.732714
outer loop
vertex -0.587067 0.668708 0.735521
vertex -0.545431 0.523161 0.871560
vertex -0.361359 0.516312 0.964079
endloop
endfacet
facet normal -0.344532 0.587670 0.732080
outer loop
vertex -0.264563 0.814227 0.770484
vertex -0.587067 0.668708 0.735521
vertex -0.361359 0.516312 0.964079
endloop
endfacet
facet normal -0.463032 0.002418 0.886338
outer loop
vertex -0.333338 0.000000 1.105304
vertex -0.420089 0.178323 1.059497
vertex -0.602711 0.184118 0.964078
endloop
endfacet
facet normal -0.459605 0.000000 0.888123
outer loop
vertex -0.602711 0.184118 0.964078
vertex -0.698582 0.000000 0.914465
vertex -0.602711 -0.184118 0.964078
endloop
endfacet
facet normal -0.463032 -0.002418 0.886338
outer loop
vertex -0.602711 -0.184118 0.964078
vertex -0.420089 -0.178323 1.059497
vertex -0.333338 0.000000 1.105304
endloop
endfacet
facet normal -0.464331 -0.000000 0.885662
outer loop
vertex -0.602711 0.184118 0.964078
vertex -0.602711 -0.184118 0.964078
vertex -0.333338 0.000000 1.105304
endloop
endfacet
facet normal -0.664132 0.148523 0.732714
outer loop
vertex -0.602711 0.184118 0.964078
vertex -0.666107 0.357063 0.871559
vertex -0.817397 0.351685 0.735520
endloop
endfacet
facet normal -0.667465 0.146105 0.730167
outer loop
vertex -0.817397 0.351685 0.735520
vertex -0.911553 0.178740 0.684056
vertex -0.856133 0.000000 0.770482
endloop
endfacet
facet normal -0.666910 0.150617 0.729758
outer loop
vertex -0.856133 0.000000 0.770482
vertex -0.698582 0.000000 0.914465
vertex -0.602711 0.184118 0.964078
endloop
endfacet
facet normal -0.665376 0.146065 0.732079
outer loop
vertex -0.817397 0.351685 0.735520
vertex -0.856133 0.000000 0.770482
vertex -0.602711 0.184118 0.964078
endloop
endfacet
facet normal -0.666909 -0.150618 0.729758
outer loop
vertex -0.602711 -0.184118 0.964078
vertex -0.698582 0.000000 0.914465
vertex -0.856133 0.000000 0.770482
endloop
endfacet
facet normal -0.667466 -0.146105 0.730167
outer loop
vertex -0.856133 0.000000 0.770482
vertex -0.911553 -0.178740 0.684056
vertex -0.817397 -0.351685 0.735520
endloop
endfacet
facet normal -0.664132 -0.148524 0.732714
outer loop
vertex -0.817397 -0.351685 0.735520
vertex -0.666107 -0.357063 0.871559
vertex -0.602711 -0.184118 0.964078
endloop
endfacet
facet normal -0.665376 -0.146065 0.732079
outer loop
vertex -0.856133 0.000000 0.770482
vertex -0.817397 -0.351685 0.735520
vertex -0.602711 -0.184118 0.964078
endloop
endfacet
facet normal -0.145389 -0.439621 0.886338
outer loop
vertex -0.103008 -0.317021 1.105304
vertex -0.299413 -0.344420 1.059498
vertex -0.361359 -0.516312 0.964079
endloop
endfacet
facet normal -0.142026 -0.437106 0.888126
outer loop
vertex -0.361359 -0.516312 0.964079
vertex -0.215877 -0.664387 0.914466
vertex -0.011142 -0.630106 0.964079
endloop
endfacet
facet normal -0.140786 -0.441117 0.886338
outer loop
vertex -0.011142 -0.630106 0.964079
vertex 0.039780 -0.454632 1.059498
vertex -0.103008 -0.317021 1.105304
endloop
endfacet
facet normal -0.143489 -0.441604 0.885662
outer loop
vertex -0.361359 -0.516312 0.964079
vertex -0.011142 -0.630106 0.964079
vertex -0.103008 -0.317021 1.105304
endloop
endfacet
facet normal -0.346487 -0.585727 0.732715
outer loop
vertex -0.361359 -0.516312 0.964079
vertex -0.545431 -0.523161 0.871560
vertex -0.587067 -0.668708 0.735521
endloop
endfacet
facet normal -0.345216 -0.589644 0.730169
outer loop
vertex -0.587067 -0.668708 0.735521
vertex -0.451682 -0.811700 0.684057
vertex -0.264563 -0.814227 0.770484
endloop
endfacet
facet normal -0.349335 -0.587722 0.729759
outer loop
vertex -0.264563 -0.814227 0.770484
vertex -0.215877 -0.664387 0.914466
vertex -0.361359 -0.516312 0.964079
endloop
endfacet
facet normal -0.344532 -0.587670 0.732080
outer loop
vertex -0.587067 -0.668708 0.735521
vertex -0.264563 -0.814227 0.770484
vertex -0.361359 -0.516312 0.964079
endloop
endfacet
facet normal -0.062845 -0.680810 0.729759
outer loop
vertex -0.011142 -0.630106 0.964079
vertex -0.215877 -0.664387 0.914466
vertex -0.264563 -0.814227 0.770484
endloop
endfacet
facet normal -0.067306 -0.679944 0.730169
outer loop
vertex -0.264563 -0.814227 0.770484
vertex -0.111697 -0.922170 0.684058
vertex 0.081881 -0.886067 0.735521
endloop
endfacet
facet normal -0.063975 -0.677522 0.732715
outer loop
vertex 0.081881 -0.886067 0.735521
vertex 0.133749 -0.743843 0.871560
vertex -0.011142 -0.630106 0.964079
endloop
endfacet
facet normal -0.066699 -0.677945 0.732080
outer loop
vertex -0.264563 -0.814227 0.770484
vertex 0.081881 -0.886067 0.735521
vertex -0.011142 -0.630106 0.964079
endloop
endfacet
facet normal 0.373179 -0.274123 0.886338
outer loop
vertex 0.269676 -0.195931 1.105304
vertex 0.235040 -0.391190 1.059497
vertex 0.379378 -0.503221 0.964078
endloop
endfacet
facet normal 0.371825 -0.270146 0.888126
outer loop
vertex 0.379378 -0.503221 0.964078
vertex 0.565164 -0.410616 0.914465
vertex 0.595828 -0.205308 0.964077
endloop
endfacet
facet normal 0.376024 -0.270208 0.886337
outer loop
vertex 0.595828 -0.205308 0.964077
vertex 0.444678 -0.102654 1.059496
vertex 0.269676 -0.195931 1.105304
endloop
endfacet
facet normal 0.375652 -0.272927 0.885661
outer loop
vertex 0.379378 -0.503221 0.964078
vertex 0.595828 -0.205308 0.964077
vertex 0.269676 -0.195931 1.105304
endloop
endfacet
facet normal 0.449989 -0.510528 0.732715
outer loop
vertex 0.379378 -0.503221 0.964078
vertex 0.329009 -0.680400 0.871560
vertex 0.454568 -0.764975 0.735521
endloop
endfacet
facet normal 0.454110 -0.510527 0.730169
outer loop
vertex 0.454568 -0.764975 0.735521
vertex 0.632399 -0.680401 0.684057
vertex 0.692626 -0.503222 0.770482
endloop
endfacet
facet normal 0.451008 -0.513853 0.729758
outer loop
vertex 0.692626 -0.503222 0.770482
vertex 0.565164 -0.410616 0.914465
vertex 0.379378 -0.503221 0.964078
endloop
endfacet
facet normal 0.452444 -0.509268 0.732080
outer loop
vertex 0.454568 -0.764975 0.735521
vertex 0.692626 -0.503222 0.770482
vertex 0.379378 -0.503221 0.964078
endloop
endfacet
facet normal 0.628070 -0.270149 0.729759
outer loop
vertex 0.595828 -0.205308 0.964077
vertex 0.565164 -0.410616 0.914465
vertex 0.692626 -0.503222 0.770482
endloop
endfacet
facet normal 0.625868 -0.274121 0.730169
outer loop
vertex 0.692626 -0.503222 0.770482
vertex 0.842524 -0.391191 0.684055
vertex 0.868006 -0.195931 0.735517
endloop
endfacet
facet normal 0.624596 -0.270208 0.732712
outer loop
vertex 0.868006 -0.195931 0.735517
vertex 0.748772 -0.102654 0.871557
vertex 0.595828 -0.205308 0.964077
endloop
endfacet
facet normal 0.624158 -0.272927 0.732078
outer loop
vertex 0.692626 -0.503222 0.770482
vertex 0.868006 -0.195931 0.735517
vertex 0.595828 -0.205308 0.964077
endloop
endfacet
facet normal 0.857783 0.439623 0.266344
outer loop
vertex 1.034679 0.317023 0.402176
vertex 1.081544 0.344422 0.206018
vertex 1.023901 0.516315 0.107939
endloop
endfacet
facet normal 0.857879 0.437106 0.270152
outer loop
vertex 1.023901 0.516315 0.107939
vertex 0.914462 0.664391 0.215878
vertex 0.867275 0.630109 0.421189
endloop
endfacet
facet normal 0.855723 0.441120 0.270464
outer loop
vertex 0.867275 0.630109 0.421189
vertex 0.929849 0.454634 0.509408
vertex 1.034679 0.317023 0.402176
endloop
endfacet
facet normal 0.856328 0.441608 0.267741
outer loop
vertex 1.023901 0.516315 0.107939
vertex 0.867275 0.630109 0.421189
vertex 1.034679 0.317023 0.402176
endloop
endfacet
facet normal 0.810311 0.585731 0.017770
outer loop
vertex 1.023901 0.516315 0.107939
vertex 1.023469 0.523163 -0.098080
vertex 0.920410 0.668711 -0.196160
endloop
endfacet
facet normal 0.807466 0.589647 0.017771
outer loop
vertex 0.920410 0.668711 -0.196160
vertex 0.813832 0.811704 -0.098080
vertex 0.807452 0.814233 0.107939
endloop
endfacet
facet normal 0.808940 0.587727 0.013903
outer loop
vertex 0.807452 0.814233 0.107939
vertex 0.914462 0.664391 0.215878
vertex 1.023901 0.516315 0.107939
endloop
endfacet
facet normal 0.808869 0.587674 0.019235
outer loop
vertex 0.920410 0.668711 -0.196160
vertex 0.807452 0.814233 0.107939
vertex 1.023901 0.516315 0.107939
endloop
endfacet
facet normal 0.680816 0.680814 0.270151
outer loop
vertex 0.867275 0.630109 0.421189
vertex 0.914462 0.664391 0.215878
vertex 0.807452 0.814233 0.107939
endloop
endfacet
facet normal 0.683180 0.679945 0.266347
outer loop
vertex 0.807452 0.814233 0.107939
vertex 0.661783 0.922175 0.206019
vertex 0.621241 0.886070 0.402179
endloop
endfacet
facet normal 0.683964 0.677527 0.270464
outer loop
vertex 0.621241 0.886070 0.402179
vertex 0.719724 0.743846 0.509410
vertex 0.867275 0.630109 0.421189
endloop
endfacet
facet normal 0.684615 0.677950 0.267742
outer loop
vertex 0.807452 0.814233 0.107939
vertex 0.621241 0.886070 0.402179
vertex 0.867275 0.630109 0.421189
endloop
endfacet
facet normal -0.153042 0.951651 0.266344
outer loop
vertex 0.018220 1.082003 0.402179
vertex 0.006645 1.135041 0.206019
vertex -0.174647 1.133337 0.107939
endloop
endfacet
facet normal -0.150617 0.950963 0.270154
outer loop
vertex -0.174647 1.133337 0.107939
vertex -0.349294 1.075012 0.215878
vertex -0.331272 1.019540 0.421190
endloop
endfacet
facet normal -0.155101 0.950153 0.270469
outer loop
vertex -0.331272 1.019540 0.421190
vertex -0.145051 1.024826 0.509410
vertex 0.018220 1.082003 0.402179
endloop
endfacet
facet normal -0.155379 0.950879 0.267742
outer loop
vertex -0.174647 1.133337 0.107939
vertex -0.331272 1.019540 0.421190
vertex 0.018220 1.082003 0.402179
endloop
endfacet
facet normal -0.306666 0.951651 0.017768
outer loop
vertex -0.174647 1.133337 0.107939
vertex -0.181292 1.135042 -0.098080
vertex -0.351562 1.082005 -0.196160
endloop
endfacet
facet normal -0.311266 0.950157 0.017773
outer loop
vertex -0.351562 1.082005 -0.196160
vertex -0.520490 1.024830 -0.098080
vertex -0.524867 1.019543 0.107939
endloop
endfacet
facet normal -0.308988 0.950964 0.013906
outer loop
vertex -0.524867 1.019543 0.107939
vertex -0.349294 1.075012 0.215878
vertex -0.174647 1.133337 0.107939
endloop
endfacet
facet normal -0.308961 0.950880 0.019234
outer loop
vertex -0.351562 1.082005 -0.196160
vertex -0.524867 1.019543 0.107939
vertex -0.174647 1.133337 0.107939
endloop
endfacet
facet normal -0.437113 0.857876 0.270151
outer loop
vertex -0.331272 1.019540 0.421190
vertex -0.349294 1.075012 0.215878
vertex -0.524867 1.019543 0.107939
endloop
endfacet
facet normal -0.435554 0.859856 0.266347
outer loop
vertex -0.524867 1.019543 0.107939
vertex -0.672540 0.914359 0.206019
vertex -0.650732 0.864644 0.402179
endloop
endfacet
facet normal -0.433012 0.859853 0.270469
outer loop
vertex -0.650732 0.864644 0.402179
vertex -0.485037 0.914356 0.509410
vertex -0.331272 1.019540 0.421190
endloop
endfacet
facet normal -0.433214 0.860605 0.267741
outer loop
vertex -0.524867 1.019543 0.107939
vertex -0.650732 0.864644 0.402179
vertex -0.331272 1.019540 0.421190
endloop
endfacet
facet normal -0.952366 0.148521 0.266345
outer loop
vertex -1.023416 0.351685 0.402177
vertex -1.077436 0.357065 0.206018
vertex -1.131837 0.184119 0.107939
endloop
endfacet
facet normal -0.950964 0.150620 0.270152
outer loop
vertex -1.131837 0.184119 0.107939
vertex -1.130335 -0.000000 0.215878
vertex -1.072010 -0.000000 0.421188
endloop
endfacet
facet normal -0.951577 0.146105 0.270469
outer loop
vertex -1.072010 -0.000000 0.421188
vertex -1.019491 0.178740 0.509409
vertex -1.023416 0.351685 0.402177
endloop
endfacet
facet normal -0.952355 0.146065 0.267740
outer loop
vertex -1.131837 0.184119 0.107939
vertex -1.072010 -0.000000 0.421188
vertex -1.023416 0.351685 0.402177
endloop
endfacet
facet normal -0.999839 0.002417 0.017771
outer loop
vertex -1.131837 0.184119 0.107939
vertex -1.135513 0.178324 -0.098079
vertex -1.137687 -0.000000 -0.196158
endloop
endfacet
facet normal -0.999839 -0.002417 0.017772
outer loop
vertex -1.137687 -0.000000 -0.196158
vertex -1.135513 -0.178324 -0.098079
vertex -1.131837 -0.184119 0.107939
endloop
endfacet
facet normal -0.999903 0.000000 0.013909
outer loop
vertex -1.131837 -0.184119 0.107939
vertex -1.130335 -0.000000 0.215878
vertex -1.131837 0.184119 0.107939
endloop
endfacet
facet normal -0.999815 -0.000000 0.019235
outer loop
vertex -1.137687 -0.000000 -0.196158
vertex -1.131837 -0.184119 0.107939
vertex -1.131837 0.184119 0.107939
endloop
endfacet
facet normal -0.950964 -0.150619 0.270152
outer loop
vertex -1.072010 -0.000000 0.421188
vertex -1.130335 -0.000000 0.215878
vertex -1.131837 -0.184119 0.107939
endloop
endfacet
facet normal -0.952366 -0.148524 0.266345
outer loop
vertex -1.131837 -0.184119 0.107939
vertex -1.077436 -0.357065 0.206019
vertex -1.023416 -0.351685 0.402178
endloop
endfacet
facet normal -0.951577 -0.146105 0.270470
outer loop
vertex -1.023416 -0.351685 0.402178
vertex -1.019491 -0.178740 0.509409
vertex -1.072010 -0.000000 0.421188
endloop
endfacet
facet normal -0.952355 -0.146065 0.267741
outer loop
vertex -1.131837 -0.184119 0.107939
vertex -1.023416 -0.351685 0.402178
vertex -1.072010 -0.000000 0.421188
endloop
endfacet
facet normal -0.435553 -0.859856 0.266347
outer loop
vertex -0.650732 -0.864644 0.402179
vertex -0.672540 -0.914359 0.206019
vertex -0.524868 -1.019543 0.107939
endloop
endfacet
facet normal -0.437113 -0.857876 0.270151
outer loop
vertex -0.524868 -1.019543 0.107939
vertex -0.349295 -1.075012 0.215877
vertex -0.331273 -1.019540 0.421190
endloop
endfacet
facet normal -0.433013 -0.859853 0.270467
outer loop
vertex -0.331273 -1.019540 0.421190
vertex -0.485038 -0.914356 0.509410
vertex -0.650732 -0.864644 0.402179
endloop
endfacet
facet normal -0.433214 -0.860604 0.267742
outer loop
vertex -0.524868 -1.019543 0.107939
vertex -0.331273 -1.019540 0.421190
vertex -0.650732 -0.864644 0.402179
endloop
endfacet
facet normal -0.311266 -0.950157 0.017771
outer loop
vertex -0.524868 -1.019543 0.107939
vertex -0.520491 -1.024830 -0.098081
vertex -0.351563 -1.082005 -0.196161
endloop
endfacet
facet normal -0.306666 -0.951651 0.017770
outer loop
vertex -0.351563 -1.082005 -0.196161
vertex -0.181293 -1.135042 -0.098080
vertex -0.174648 -1.133337 0.107939
endloop
endfacet
facet normal -0.308988 -0.950964 0.013905
outer loop
vertex -0.174648 -1.133337 0.107939
vertex -0.349295 -1.075012 0.215877
vertex -0.524868 -1.019543 0.107939
endloop
endfacet
facet normal -0.308961 -0.950880 0.019235
outer loop
vertex -0.351563 -1.082005 -0.196161
vertex -0.174648 -1.133337 0.107939
vertex -0.524868 -1.019543 0.107939
endloop
endfacet
facet normal -0.150617 -0.950964 0.270153
outer loop
vertex -0.331273 -1.019540 0.421190
vertex -0.349295 -1.075012 0.215877
vertex -0.174648 -1.133337 0.107939
endloop
endfacet
facet normal -0.153043 -0.951651 0.266344
outer loop
vertex -0.174648 -1.133337 0.107939
vertex 0.006645 -1.135041 0.206019
vertex 0.018220 -1.082003 0.402179
endloop
endfacet
facet normal -0.155102 -0.950154 0.270465
outer loop
vertex 0.018220 -1.082003 0.402179
vertex -0.145051 -1.024826 0.509410
vertex -0.331273 -1.019540 0.421190
endloop
endfacet
facet normal -0.155380 -0.950879 0.267743
outer loop
vertex -0.174648 -1.133337 0.107939
vertex 0.018220 -1.082003 0.402179
vertex -0.331273 -1.019540 0.421190
endloop
endfacet
facet normal 0.683179 -0.679945 0.266346
outer loop
vertex 0.621241 -0.886071 0.402178
vertex 0.661783 -0.922175 0.206019
vertex 0.807452 -0.814233 0.107938
endloop
endfacet
facet normal 0.680815 -0.680815 0.270151
outer loop
vertex 0.807452 -0.814233 0.107938
vertex 0.914462 -0.664392 0.215876
vertex 0.867275 -0.630110 0.421188
endloop
endfacet
facet normal 0.683963 -0.677526 0.270466
outer loop
vertex 0.867275 -0.630110 0.421188
vertex 0.719724 -0.743846 0.509409
vertex 0.621241 -0.886071 0.402178
endloop
endfacet
facet normal 0.684615 -0.677951 0.267741
outer loop
vertex 0.807452 -0.814233 0.107938
vertex 0.867275 -0.630110 0.421188
vertex 0.621241 -0.886071 0.402178
endloop
endfacet
facet normal 0.807467 -0.589645 0.017771
outer loop
vertex 0.807452 -0.814233 0.107938
vertex 0.813832 -0.811705 -0.098081
vertex 0.920410 -0.668712 -0.196161
endloop
endfacet
facet normal 0.810312 -0.585730 0.017769
outer loop
vertex 0.920410 -0.668712 -0.196161
vertex 1.023468 -0.523163 -0.098081
vertex 1.023901 -0.516316 0.107937
endloop
endfacet
facet normal 0.808940 -0.587727 0.013902
outer loop
vertex 1.023901 -0.516316 0.107937
vertex 0.914462 -0.664392 0.215876
vertex 0.807452 -0.814233 0.107938
endloop
endfacet
facet normal 0.808868 -0.587675 0.019234
outer loop
vertex 0.920410 -0.668712 -0.196161
vertex 1.023901 -0.516316 0.107937
vertex 0.807452 -0.814233 0.107938
endloop
endfacet
facet normal 0.857878 -0.437107 0.270151
outer loop
vertex 0.867275 -0.630110 0.421188
vertex 0.914462 -0.664392 0.215876
vertex 1.023901 -0.516316 0.107937
endloop
endfacet
facet normal 0.857783 -0.439623 0.266344
outer loop
vertex 1.023901 -0.516316 0.107937
vertex 1.081544 -0.344422 0.206017
vertex 1.034679 -0.317023 0.402176
endloop
endfacet
facet normal 0.855723 -0.441120 0.270464
outer loop
vertex 1.034679 -0.317023 0.402176
vertex 0.929849 -0.454635 0.509408
vertex 0.867275 -0.630110 0.421188
endloop
endfacet
facet normal 0.856327 -0.441609 0.267740
outer loop
vertex 1.023901 -0.516316 0.107937
vertex 1.034679 -0.317023 0.402176
vertex 0.867275 -0.630110 0.421188
endloop
endfacet
facet normal 0.311266 0.950157 -0.017771
outer loop
vertex 0.351563 1.082005 0.196160
vertex 0.520491 1.024830 0.098080
vertex 0.524868 1.019543 -0.107939
endloop
endfacet
facet normal 0.308988 0.950964 -0.013905
outer loop
vertex 0.524868 1.019543 -0.107939
vertex 0.349295 1.075012 -0.215878
vertex 0.174648 1.133337 -0.107939
endloop
endfacet
facet normal 0.306666 0.951651 -0.017770
outer loop
vertex 0.174648 1.133337 -0.107939
vertex 0.181293 1.135042 0.098080
vertex 0.351563 1.082005 0.196160
endloop
endfacet
facet normal 0.308961 0.950880 -0.019235
outer loop
vertex 0.524868 1.019543 -0.107939
vertex 0.174648 1.133337 -0.107939
vertex 0.351563 1.082005 0.196160
endloop
endfacet
facet normal -0.807467 0.589645 -0.017772
outer loop
vertex -0.920410 0.668712 0.196160
vertex -0.813832 0.811705 0.098080
vertex -0.807451 0.814233 -0.107939
endloop
endfacet
facet normal -0.808940 0.587727 -0.013904
outer loop
vertex -0.807451 0.814233 -0.107939
vertex -0.914461 0.664393 -0.215878
vertex -1.023900 0.516316 -0.107939
endloop
endfacet
facet normal -0.810311 0.585730 -0.017769
outer loop
vertex -1.023900 0.516316 -0.107939
vertex -1.023468 0.523163 0.098080
vertex -0.920410 0.668712 0.196160
endloop
endfacet
facet normal -0.808868 0.587675 -0.019235
outer loop
vertex -0.807451 0.814233 -0.107939
vertex -1.023900 0.516316 -0.107939
vertex -0.920410 0.668712 0.196160
endloop
endfacet
facet normal -0.810311 -0.585730 -0.017769
outer loop
vertex -0.920410 -0.668712 0.196160
vertex -1.023468 -0.523163 0.098080
vertex -1.023900 -0.516316 -0.107939
endloop
endfacet
facet normal -0.808940 -0.587727 -0.013904
outer loop
vertex -1.023900 -0.516316 -0.107939
vertex -0.914461 -0.664393 -0.215878
vertex -0.807451 -0.814233 -0.107939
endloop
endfacet
facet normal -0.807467 -0.589644 -0.017772
outer loop
vertex -0.807451 -0.814233 -0.107939
vertex -0.813832 -0.811705 0.098080
vertex -0.920410 -0.668712 0.196160
endloop
endfacet
facet normal -0.808868 -0.587676 -0.019235
outer loop
vertex -1.023900 -0.516316 -0.107939
vertex -0.807451 -0.814233 -0.107939
vertex -0.920410 -0.668712 0.196160
endloop
endfacet
facet normal 0.306666 -0.951651 -0.017771
outer loop
vertex 0.351563 -1.082005 0.196160
vertex 0.181293 -1.135042 0.098080
vertex 0.174648 -1.133337 -0.107939
endloop
endfacet
facet normal 0.308988 -0.950964 -0.013906
outer loop
vertex 0.174648 -1.133337 -0.107939
vertex 0.349295 -1.075012 -0.215878
vertex 0.524868 -1.019543 -0.107939
endloop
endfacet
facet normal 0.311266 -0.950157 -0.017771
outer loop
vertex 0.524868 -1.019543 -0.107939
vertex 0.520491 -1.024830 0.098080
vertex 0.351563 -1.082005 0.196160
endloop
endfacet
facet normal 0.308961 -0.950880 -0.019235
outer loop
vertex 0.174648 -1.133337 -0.107939
vertex 0.524868 -1.019543 -0.107939
vertex 0.351563 -1.082005 0.196160
endloop
endfacet
facet normal 0.999839 -0.002419 -0.017771
outer loop
vertex 1.137687 0.000000 0.196158
vertex 1.135513 -0.178324 0.098079
vertex 1.131837 -0.184119 -0.107939
endloop
endfacet
facet normal 0.999903 -0.000000 -0.013909
outer loop
vertex 1.131837 -0.184119 -0.107939
vertex 1.130335 0.000000 -0.215877
vertex 1.131837 0.184119 -0.107939
endloop
endfacet
facet normal 0.999839 0.002417 -0.017771
outer loop
vertex 1.131837 0.184119 -0.107939
vertex 1.135513 0.178324 0.098079
vertex 1.137687 0.000000 0.196158
endloop
endfacet
facet normal 0.999815 0.000001 -0.019234
outer loop
vertex 1.131837 -0.184119 -0.107939
vertex 1.131837 0.184119 -0.107939
vertex 1.137687 0.000000 0.196158
endloop
endfacet
facet normal -0.857783 0.439625 -0.266343
outer loop
vertex -1.034678 0.317024 -0.402176
vertex -1.081544 0.344422 -0.206018
vertex -1.023900 0.516316 -0.107939
endloop
endfacet
facet normal -0.857879 0.437106 -0.270153
outer loop
vertex -1.023900 0.516316 -0.107939
vertex -0.914461 0.664393 -0.215878
vertex -0.867274 0.630111 -0.421189
endloop
endfacet
facet normal -0.856327 0.441609 -0.267741
outer loop
vertex -1.023900 0.516316 -0.107939
vertex -0.867274 0.630111 -0.421189
vertex -1.034678 0.317024 -0.402176
endloop
endfacet
facet normal -0.959966 0.164648 -0.226618
outer loop
vertex -1.034678 0.317024 -0.402176
vertex -1.096458 0.000000 -0.370806
vertex -1.137687 -0.000000 -0.196158
endloop
endfacet
facet normal -0.956893 0.148841 -0.249403
outer loop
vertex -1.137687 -0.000000 -0.196158
vertex -1.135513 0.178324 -0.098079
vertex -1.081544 0.344422 -0.206018
endloop
endfacet
facet normal -0.956892 0.148840 -0.249406
outer loop
vertex -1.137687 -0.000000 -0.196158
vertex -1.081544 0.344422 -0.206018
vertex -1.034678 0.317024 -0.402176
endloop
endfacet
facet normal -0.956893 -0.148840 -0.249403
outer loop
vertex -1.081544 -0.344422 -0.206018
vertex -1.135513 -0.178324 -0.098079
vertex -1.137687 -0.000000 -0.196158
endloop
endfacet
facet normal -0.959966 -0.164648 -0.226618
outer loop
vertex -1.137687 -0.000000 -0.196158
vertex -1.096458 0.000000 -0.370806
vertex -1.034678 -0.317024 -0.402176
endloop
endfacet
facet normal -0.956892 -0.148840 -0.249407
outer loop
vertex -1.137687 -0.000000 -0.196158
vertex -1.034678 -0.317024 -0.402176
vertex -1.081544 -0.344422 -0.206018
endloop
endfacet
facet normal -0.857719 -0.439674 -0.266469
outer loop
vertex -0.914461 -0.664393 -0.215878
vertex -1.023900 -0.516316 -0.107939
vertex -1.081544 -0.344422 -0.206018
endloop
endfacet
facet normal -0.856627 -0.441852 -0.266379
outer loop
vertex -1.081544 -0.344422 -0.206018
vertex -1.034678 -0.317024 -0.402176
vertex -0.867275 -0.630111 -0.421189
endloop
endfacet
facet normal -0.856834 -0.439095 -0.270244
outer loop
vertex -1.081544 -0.344422 -0.206018
vertex -0.867275 -0.630111 -0.421189
vertex -0.914461 -0.664393 -0.215878
endloop
endfacet
facet normal -0.683178 -0.679946 -0.266347
outer loop
vertex -0.621240 -0.886071 -0.402179
vertex -0.661782 -0.922175 -0.206019
vertex -0.807451 -0.814233 -0.107939
endloop
endfacet
facet normal -0.680814 -0.680816 -0.270152
outer loop
vertex -0.807451 -0.814233 -0.107939
vertex -0.914461 -0.664393 -0.215878
vertex -0.867275 -0.630111 -0.421189
endloop
endfacet
facet normal -0.684614 -0.677951 -0.267742
outer loop
vertex -0.807451 -0.814233 -0.107939
vertex -0.867275 -0.630111 -0.421189
vertex -0.621240 -0.886071 -0.402179
endloop
endfacet
facet normal -0.453233 -0.862104 -0.226622
outer loop
vertex -0.621240 -0.886071 -0.402179
vertex -0.338820 -1.042793 -0.370809
vertex -0.351563 -1.082005 -0.196161
endloop
endfacet
facet normal -0.437252 -0.864065 -0.249405
outer loop
vertex -0.351563 -1.082005 -0.196161
vertex -0.520491 -1.024830 -0.098081
vertex -0.661782 -0.922175 -0.206019
endloop
endfacet
facet normal -0.437251 -0.864064 -0.249408
outer loop
vertex -0.351563 -1.082005 -0.196161
vertex -0.661782 -0.922175 -0.206019
vertex -0.621240 -0.886071 -0.402179
endloop
endfacet
facet normal -0.154138 -0.956054 -0.249404
outer loop
vertex -0.006645 -1.135041 -0.206019
vertex -0.181293 -1.135042 -0.098080
vertex -0.351563 -1.082005 -0.196161
endloop
endfacet
facet normal -0.140053 -0.963861 -0.226620
outer loop
vertex -0.351563 -1.082005 -0.196161
vertex -0.338820 -1.042793 -0.370809
vertex -0.018220 -1.082003 -0.402179
endloop
endfacet
facet normal -0.154138 -0.956053 -0.249408
outer loop
vertex -0.351563 -1.082005 -0.196161
vertex -0.018220 -1.082003 -0.402179
vertex -0.006645 -1.135041 -0.206019
endloop
endfacet
facet normal 0.153109 -0.951605 -0.266470
outer loop
vertex 0.349295 -1.075012 -0.215878
vertex 0.174648 -1.133337 -0.107939
vertex -0.006645 -1.135041 -0.206019
endloop
endfacet
facet normal 0.155518 -0.951239 -0.266379
outer loop
vertex -0.006645 -1.135041 -0.206019
vertex -0.018220 -1.082003 -0.402179
vertex 0.331273 -1.019540 -0.421190
endloop
endfacet
facet normal 0.152832 -0.950584 -0.270245
outer loop
vertex -0.006645 -1.135041 -0.206019
vertex 0.331273 -1.019540 -0.421190
vertex 0.349295 -1.075012 -0.215878
endloop
endfacet
facet normal 0.435553 -0.859856 -0.266347
outer loop
vertex 0.650732 -0.864644 -0.402179
vertex 0.672540 -0.914359 -0.206019
vertex 0.524868 -1.019543 -0.107939
endloop
endfacet
facet normal 0.437114 -0.857875 -0.270152
outer loop
vertex 0.524868 -1.019543 -0.107939
vertex 0.349295 -1.075012 -0.215878
vertex 0.331273 -1.019540 -0.421190
endloop
endfacet
facet normal 0.433215 -0.860604 -0.267742
outer loop
vertex 0.524868 -1.019543 -0.107939
vertex 0.331273 -1.019540 -0.421190
vertex 0.650732 -0.864644 -0.402179
endloop
endfacet
facet normal 0.679855 -0.697453 -0.226623
outer loop
vertex 0.650732 -0.864644 -0.402179
vertex 0.887055 -0.644477 -0.370809
vertex 0.920410 -0.668712 -0.196161
endloop
endfacet
facet normal 0.686658 -0.682860 -0.249406
outer loop
vertex 0.920410 -0.668712 -0.196161
vertex 0.813832 -0.811705 -0.098081
vertex 0.672540 -0.914359 -0.206019
endloop
endfacet
facet normal 0.686658 -0.682860 -0.249406
outer loop
vertex 0.920410 -0.668712 -0.196161
vertex 0.672540 -0.914359 -0.206019
vertex 0.650732 -0.864644 -0.402179
endloop
endfacet
facet normal 0.861631 -0.442030 -0.249403
outer loop
vertex 1.077436 -0.357065 -0.206018
vertex 1.023468 -0.523163 -0.098081
vertex 0.920410 -0.668712 -0.196161
endloop
endfacet
facet normal 0.873407 -0.431049 -0.226620
outer loop
vertex 0.920410 -0.668712 -0.196161
vertex 0.887055 -0.644477 -0.370809
vertex 1.023416 -0.351685 -0.402177
endloop
endfacet
facet normal 0.861630 -0.442030 -0.249407
outer loop
vertex 0.920410 -0.668712 -0.196161
vertex 1.023416 -0.351685 -0.402177
vertex 1.077436 -0.357065 -0.206018
endloop
endfacet
facet normal 0.952345 -0.148446 -0.266465
outer loop
vertex 1.130335 0.000000 -0.215877
vertex 1.131837 -0.184119 -0.107939
vertex 1.077436 -0.357065 -0.206018
endloop
endfacet
facet normal 0.952739 -0.146045 -0.266381
outer loop
vertex 1.077436 -0.357065 -0.206018
vertex 1.023416 -0.351685 -0.402177
vertex 1.072010 0.000000 -0.421188
endloop
endfacet
facet normal 0.951287 -0.148395 -0.270243
outer loop
vertex 1.077436 -0.357065 -0.206018
vertex 1.072010 0.000000 -0.421188
vertex 1.130335 0.000000 -0.215877
endloop
endfacet
facet normal 0.952366 0.148521 -0.266345
outer loop
vertex 1.023416 0.351685 -0.402177
vertex 1.077436 0.357065 -0.206018
vertex 1.131837 0.184119 -0.107939
endloop
endfacet
facet normal 0.950964 0.150620 -0.270152
outer loop
vertex 1.131837 0.184119 -0.107939
vertex 1.130335 0.000000 -0.215877
vertex 1.072010 0.000000 -0.421188
endloop
endfacet
facet normal 0.952355 0.146065 -0.267740
outer loop
vertex 1.131837 0.184119 -0.107939
vertex 1.072010 0.000000 -0.421188
vertex 1.023416 0.351685 -0.402177
endloop
endfacet
facet normal 0.873407 0.431048 -0.226620
outer loop
vertex 1.023416 0.351685 -0.402177
vertex 0.887055 0.644477 -0.370809
vertex 0.920410 0.668711 -0.196160
endloop
endfacet
facet normal 0.861631 0.442030 -0.249402
outer loop
vertex 0.920410 0.668711 -0.196160
vertex 1.023469 0.523163 -0.098080
vertex 1.077436 0.357065 -0.206018
endloop
endfacet
facet normal 0.861630 0.442030 -0.249406
outer loop
vertex 0.920410 0.668711 -0.196160
vertex 1.077436 0.357065 -0.206018
vertex 1.023416 0.351685 -0.402177
endloop
endfacet
facet normal 0.679854 0.697453 -0.226621
outer loop
vertex 0.920410 0.668711 -0.196160
vertex 0.887055 0.644477 -0.370809
vertex 0.650732 0.864644 -0.402179
endloop
endfacet
facet normal 0.686659 0.682859 -0.249406
outer loop
vertex 0.650732 0.864644 -0.402179
vertex 0.672540 0.914359 -0.206019
vertex 0.813832 0.811704 -0.098080
endloop
endfacet
facet normal 0.686658 0.682860 -0.249405
outer loop
vertex 0.650732 0.864644 -0.402179
vertex 0.813832 0.811704 -0.098080
vertex 0.920410 0.668711 -0.196160
endloop
endfacet
facet normal 0.435475 0.859858 -0.266469
outer loop
vertex 0.349295 1.075012 -0.215878
vertex 0.524868 1.019543 -0.107939
vertex 0.672540 0.914359 -0.206019
endloop
endfacet
facet normal 0.433314 0.860976 -0.266382
outer loop
vertex 0.672540 0.914359 -0.206019
vertex 0.650732 0.864644 -0.402179
vertex 0.331273 1.019540 -0.421190
endloop
endfacet
facet normal 0.435099 0.858870 -0.270243
outer loop
vertex 0.672540 0.914359 -0.206019
vertex 0.331273 1.019540 -0.421190
vertex 0.349295 1.075012 -0.215878
endloop
endfacet
facet normal 0.153042 0.951650 -0.266345
outer loop
vertex -0.018220 1.082003 -0.402179
vertex -0.006645 1.135041 -0.206019
vertex 0.174648 1.133337 -0.107939
endloop
endfacet
facet normal 0.150617 0.950963 -0.270154
outer loop
vertex 0.174648 1.133337 -0.107939
vertex 0.349295 1.075012 -0.215878
vertex 0.331273 1.019540 -0.421190
endloop
endfacet
facet normal 0.155380 0.950879 -0.267742
outer loop
vertex 0.174648 1.133337 -0.107939
vertex 0.331273 1.019540 -0.421190
vertex -0.018220 1.082003 -0.402179
endloop
endfacet
facet normal -0.140054 0.963861 -0.226620
outer loop
vertex -0.018220 1.082003 -0.402179
vertex -0.338820 1.042793 -0.370809
vertex -0.351562 1.082005 -0.196160
endloop
endfacet
facet normal -0.154138 0.956055 -0.249401
outer loop
vertex -0.351562 1.082005 -0.196160
vertex -0.181292 1.135042 -0.098080
vertex -0.006645 1.135041 -0.206019
endloop
endfacet
facet normal -0.154138 0.956053 -0.249409
outer loop
vertex -0.351562 1.082005 -0.196160
vertex -0.006645 1.135041 -0.206019
vertex -0.018220 1.082003 -0.402179
endloop
endfacet
facet normal -0.437252 0.864065 -0.249405
outer loop
vertex -0.661782 0.922175 -0.206019
vertex -0.520490 1.024830 -0.098080
vertex -0.351562 1.082005 -0.196160
endloop
endfacet
facet normal -0.453232 0.862104 -0.226623
outer loop
vertex -0.351562 1.082005 -0.196160
vertex -0.338820 1.042793 -0.370809
vertex -0.621240 0.886071 -0.402179
endloop
endfacet
facet normal -0.437251 0.864065 -0.249407
outer loop
vertex -0.351562 1.082005 -0.196160
vertex -0.621240 0.886071 -0.402179
vertex -0.661782 0.922175 -0.206019
endloop
endfacet
facet normal -0.683206 0.679871 -0.266468
outer loop
vertex -0.914461 0.664393 -0.215878
vertex -0.807451 0.814233 -0.107939
vertex -0.661782 0.922175 -0.206019
endloop
endfacet
facet normal -0.684938 0.678160 -0.266382
outer loop
vertex -0.661782 0.922175 -0.206019
vertex -0.621240 0.886071 -0.402179
vertex -0.867274 0.630111 -0.421189
endloop
endfacet
facet normal -0.682382 0.679208 -0.270244
outer loop
vertex -0.661782 0.922175 -0.206019
vertex -0.867274 0.630111 -0.421189
vertex -0.914461 0.664393 -0.215878
endloop
endfacet
endsolid Exported from Blender-3.6.0
